<?xml version="1.0" encoding="utf-8"?>
<!-- Generator: Adobe Illustrator 16.0.3, SVG Export Plug-In . SVG Version: 6.00 Build 0)  -->
<!DOCTYPE svg PUBLIC "-//W3C//DTD SVG 1.1//EN" "http://www.w3.org/Graphics/SVG/1.1/DTD/svg11.dtd">
<svg version="1.1" id="Layer_2" xmlns="http://www.w3.org/2000/svg" xmlns:xlink="http://www.w3.org/1999/xlink" x="0px" y="0px"
	 width="288px" height="288px" viewBox="0 0 288 288" enable-background="new 0 0 288 288" xml:space="preserve">
<g>
	<path fill="#FFFFFF" d="M115.928,129.323l0.556,0.146l-2.901,1.042c-0.657,0.228-1.249,0.493-1.841,0.746
		c-1.265,0.556-2.49,1.067-3.76,1.137l-0.158,0.013c-1.508,0.019-2.947-0.941-4.229-1.794l-0.288-0.202
		c-1.685-1.124-3.333-2.29-4.982-3.455c-1.529-1.096-3.054-2.17-4.619-3.221c-2.275-1.522-4.587-3.007-6.921-4.491l-1.643-1.049
		L85,122.552l-2.595,2.002l0.092,1.718l-1.674,0.929l-1.146-0.944c-0.608,0.755-1.383,0.199-2.143,0.281l-0.273,0.032
		c-0.349,0.041-0.733,0.158-1.12,0.297c-0.444,0.139-0.886,0.284-1.333,0.366c-0.583,0.088-1.149,0.057-1.644,0.029
		c-0.196-0.01-0.395-0.019-0.568-0.01l-0.489-0.013l-0.276-0.398c-2.405-3.203-2.5-6.803-2.588-10.265
		c-0.018-0.742-0.038-1.487-0.1-2.229c-0.461-7.946-0.875-16.038-1.252-23.855l-0.452-9.226l-0.016-0.271
		c0.016-0.448,0.016-0.805,0.035-1.156c0.043-1.042,0.088-2.028-0.237-3.026c-0.475-1.503-0.521-3.108-0.564-4.633
		c-0.025-0.489-0.033-0.979-0.06-1.465c-0.25-4.024-0.435-7.795-0.553-11.471l0.314-0.019c-0.145-1.203-0.251-2.435-0.297-3.667
		c-0.076-2.148,1.008-3.929,1.908-5.057l1.064-1.292l0.524,1.345l0.327-0.452l0.197-3.304l2.107,0.929
		c0.562,0.24,1.085,0.471,1.565,0.717c2.379,1.226,3.953,3.184,5.14,6.348c0.524,1.365,0.576,2.694,0.643,3.964
		c0.019,0.705,0.055,1.387,0.169,2.069c0.185,1.184,0.384,2.369,0.581,3.537c0.482,2.754,0.968,5.606,1.314,8.452
		c0.466,3.929,0.815,7.928,1.14,11.809l0.368,4.292c0.031,0.588,0.081,1.172,0.151,1.737c0.801-1.162,1.619-2.343,2.354-3.556
		c1.933-3.083,4.769-5.016,7.029-6.354c0.985-0.6,2.282-0.196,3.5,0.167c0.354,0.124,0.696,0.218,1.033,0.3
		c0.513,0.107,0.978,0.338,1.418,0.549c0.181,0.089,0.342,0.177,0.525,0.247l0.46,0.208l0.462,2.053l1.15-0.452l0.293,1.064
		c0.367,1.371,0.155,2.536-0.298,3.556l0.387-0.038l-0.279,1.289c0.001,0.082-0.014,0.158-0.03,0.237
		c-0.021,0.316-0.077,0.729-0.332,1.096c-0.475,0.695-0.969,1.346-1.46,2.015c-0.476,0.654-0.967,1.327-1.421,1.996
		c-1.785,2.564-3.545,5.148-5.29,7.731l-0.761,1.118l4.966,3.104c5.35,3.338,10.903,6.803,16.261,10.299
		c1.445,0.941,2.467,2.451,3.379,3.815l0.192,0.284c0.401,0.584,0.423,1.311,0.103,1.952c-0.321,0.606-0.881,1.105-1.59,1.418
		l2.188,3.9l-1.832-0.139l0.592,0.752L115.928,129.323z"/>
	<path fill="#FFFFFF" d="M49.751,127.608c-0.068,0.202-0.156,0.382-0.245,0.584c0.112-0.107,0.245-0.193,0.358-0.278
		C49.819,127.801,49.796,127.707,49.751,127.608"/>
	<path fill="#FFFFFF" d="M49.751,127.608c-0.068,0.202-0.156,0.382-0.245,0.584c0.112-0.107,0.245-0.193,0.358-0.278
		C49.819,127.801,49.796,127.707,49.751,127.608"/>
	<path fill="#FFFFFF" d="M51.278,127.978c1.076-1.86,2.116-3.68,3.035-5.549c2.262-4.589,4.698-10.71,3.586-17.607l-0.096-0.667
		c-0.381-2.347-0.766-4.797-1.988-6.787c-2.596-4.213-6.345-8.01-11.141-11.279c-1.668-1.127-3.32-1.958-4.913-2.438
		c-1.176-0.37-2.359-0.524-3.524-0.679c-0.809-0.114-1.638-0.224-2.448-0.417c-4.128-0.954-7.664,0.742-10.653,2.391
		c-3.348,1.867-6.234,4.33-8.561,7.333c-2.509,3.275-5.502,7.741-6.26,13.385c-0.229,1.601-0.259,3.206-0.294,4.778
		c-0.021,0.686-0.023,1.39-0.064,2.078l-0.201,4.693l0.51-0.006c0.085,1.248,0.346,2.47,0.643,3.588
		c0.05,0.271,0.161,0.442,0.186,0.578c-0.025,0.237-0.041,0.691,0.196,1.086c0.624,1.045,1.13,2.113,1.682,3.244
		c0.373,0.745,0.747,1.51,1.14,2.249l-3.073-3.184l3.204,6.077c0.438,0.84,0.919,1.756,1.736,2.378
		c0.407,0.312,0.797,0.622,1.186,0.932c1.725,1.421,3.523,2.871,6.221,3.083c1.396,0.101,2.86,0.354,4.262,0.575
		c1.996,0.341,4.074,0.701,6.167,0.669c0.276,0.003,0.549-0.013,0.824-0.025c4.354-0.234,8.479-1.867,12.305-3.639
		c0.4-0.177,0.758-0.452,1.096-0.723l-0.155,0.401l0.812-0.985c0.167-0.142,0.335-0.31,0.524-0.455l7.097-5.748l-4.175,2.103
		c0.054-0.063,0.109-0.126,0.166-0.189C50.658,128.853,51.012,128.464,51.278,127.978 M36.156,122.183
		c-0.876,0.812-2.327,1.165-3.856,1.541c-0.698,0.152-1.414,0.329-2.065,0.559c-4.218-0.107-9.185-2.861-9.988-6.892
		c-0.809-4.131-1.456-8.897,1.194-13.233c1.892-3.117,4.54-5.609,7.872-7.39c0.284-0.155,0.595-0.231,0.929-0.25
		c0.666-0.032,1.423,0.218,2.294,0.739c0.423,0.275,0.988,0.575,1.622,0.66c3.969,0.572,8.316,3.885,8.55,8.97
		C43.007,112.824,40.842,117.84,36.156,122.183 M49.508,128.193c0.088-0.202,0.172-0.382,0.243-0.584
		c0.042,0.098,0.07,0.193,0.115,0.306C49.751,128,49.619,128.085,49.508,128.193"/>
	<path fill="#FFFFFF" d="M136.667,210.935c-0.016,0.022-0.057,0.025-0.072,0.048l0.113-0.01L136.667,210.935z"/>
	<path fill="#FFFFFF" d="M128.576,174.986c0.016,0,0.041,0.016,0.06,0.016c0.019,0,0.019,0,0.038-0.021L128.576,174.986z
		 M128.576,174.986c0.016,0,0.041,0.016,0.06,0.016c0.019,0,0.019,0,0.038-0.021L128.576,174.986z M136.667,210.938
		c-0.022,0.022-0.057,0.022-0.072,0.041l0.113-0.006c0.019-0.02,0.057-0.063,0.076-0.079
		C136.746,210.916,136.702,210.916,136.667,210.938 M128.576,174.986c0.016,0,0.041,0.016,0.06,0.016c0.019,0,0.019,0,0.038-0.021
		L128.576,174.986z"/>
	<path fill="#FFFFFF" d="M151.354,190.602c0.013-0.102,0.199-0.345,0.307-0.509c0.271-0.407,0.635-0.916,0.618-1.582
		c0-0.373-0.057-0.721-0.116-1.105l-0.256-1.813l-0.973,0.506c0.151-2.378,0.098-4.808-1.141-7.075
		c0.303-0.562,0.392-1.134,0.262-1.68c-0.126-0.578-0.505-1.029-1.048-1.295c-0.158-0.069-0.322-0.196-0.407-0.329
		c-0.127-0.189-0.386-0.564-0.411-0.703c0.017-0.471-0.221-0.869-0.395-1.156v-0.016l1.22-0.557l-0.989-1.004
		c-0.269-0.26-0.54-0.521-0.827-0.777c-0.572-0.502-1.09-0.963-1.391-1.479c-2.573-4.562-6.505-6.979-11.688-7.169
		c-0.315-0.024-0.612-0.089-0.909-0.13c-0.436-0.094-0.888-0.167-1.32-0.164c-0.587-0.01-1.194-0.034-1.785-0.041
		c-1.708-0.062-3.455-0.133-5.164,0.158c-4.056,0.707-7.402,3.076-10.467,5.455c-3.312,2.57-5.969,5.981-7.902,10.141
		c-1.004,2.129-2.222,4.978-2.732,7.943c-0.404,2.296-0.317,4.681-0.216,6.971l0.051,1.623c0.09,2.735,0.159,5.553,1.996,8.022
		c0.339,0.474,0.734,0.922,1.111,1.37c0.69,0.803,1.336,1.573,1.714,2.395c1.465,3.177,4.006,4.863,6.263,6.073l2.298,1.251
		l-0.594-1.599c0.892,0.133,1.779,0.281,2.648,0.411c2.71,0.423,5.493,0.862,8.285,1.064c0.944,0.069,1.866,0.078,2.748,0.031
		c2.381-0.13,4.488-0.691,6.374-1.693c0.136-0.069,0.265-0.151,0.379-0.214l2.227-0.12l-0.657-0.572
		c1.295-0.679,2.28-1.671,2.959-2.962l0.319-0.622c1.478-0.588,2.627-2.123,3.635-3.487c0.218-0.284,0.458-0.594,0.676-0.878
		c1.121-1.431,2.188-3.095,3.307-5.211c0.683-1.251,1.229-2.71,1.756-4.561c0.032-0.12,0.044-0.26,0.038-0.376
		c0.284-0.193,0.499-0.556,0.67-1.059c0.195-0.673-0.038-1.048-0.266-1.257C151.397,190.677,151.354,190.602,151.354,190.602
		 M128.673,174.98c-0.019,0.021-0.019,0.021-0.038,0.021c-0.022,0-0.042-0.016-0.057-0.016L128.673,174.98z M136.708,210.973
		l-0.117,0.006c0.016-0.019,0.057-0.019,0.073-0.044c0.041-0.019,0.082-0.019,0.12-0.041
		C136.765,210.916,136.727,210.953,136.708,210.973 M133.521,196.45c-0.493,0.613-1.364,1.191-2.517,1.661
		c-2.76,1.109-5.635,1.245-8.541,0.398c-1.592-0.461-2.748-1.576-3.179-3.063c-1.194-3.992-0.838-7.969,1.095-12.125
		c1.105-2.372,2.084-4.267,4.023-5.369c0.97-0.565,2.009-0.97,3.098-1.418c0.385-0.161,0.768-0.316,1.112-0.452
		c0.199,0.089,0.382,0.174,0.581,0.263c0.825,0.385,1.671,0.793,2.619,0.935c1.699,0.266,3.891,1.302,4.434,3.411
		C137.871,186.912,136.992,192.054,133.521,196.45"/>
	<path fill="#FFFFFF" d="M206.665,191.037l-0.069-1.311c0.069-0.123,0.164-0.246,0.253-0.386c0.512-0.735,1.073-1.566,0.827-2.476
		c-0.594-2.006-1.124-3.917-0.588-5.947l-0.6-0.202c-0.031-0.23-0.082-0.442-0.133-0.657c-0.183-0.853-0.341-1.646-0.619-2.438
		c-0.233-0.631-0.423-1.288-0.638-1.92c-0.688-2.318-1.421-4.706-3.512-6.712c-2.994-2.896-6.544-4.449-10.228-5.918
		c-0.297-0.123-0.574-0.146-0.795-0.174c-0.076,0.006-0.178-0.013-0.253-0.025l-0.537-0.127c-0.537-0.129-1.049-0.239-1.554-0.429
		c-0.354-0.114-0.698-0.315-1.062-0.489c-0.827-0.445-1.756-0.926-2.748-0.812c-2.454,0.27-4.456,0.904-5.956,1.863
		c-4.049,2.609-7.353,6.055-9.81,10.24c-2.985,5.06-4.69,10.618-5.079,16.515c-0.195,2.915,0.411,5.896,1.039,8.448
		c0.181,0.736,0.411,1.466,0.667,2.18l-0.247-0.202l0.424,0.644c0.549,1.46,1.231,2.871,1.914,4.248
		c0.523,1.067,1.263,2.028,1.958,2.95c0.297,0.395,0.612,0.793,0.891,1.185l0.55,0.799l1.437-1.001
		c0.246,0.246,0.509,0.464,0.777,0.682c0.66,0.537,1.487,0.688,2.242,0.821c0.356,0.061,0.729,0.117,1.067,0.259
		c0.104,0.032,0.225,0.124,0.348,0.256c-0.051,0.158-0.079,0.376-0.028,0.591c0.139,0.695,0.771,0.897,1.093,0.998
		c0.06,0.013,0.139,0.032,0.202,0.066c1.607,0.796,3.139,1.146,4.718,1.064c0.604-0.035,1.207-0.126,1.829-0.274
		c3.806-0.989,6.951-1.863,10.021-3.455c0.556-0.288,1.131-0.534,1.699-0.8c1.838-0.783,3.739-1.63,5.065-3.54l3.234-4.678
		c0.253-0.366,0.43-1.083-0.057-1.548c0.24-0.151,0.486-0.322,0.67-0.603l0.145-0.206l0.007-0.252
		c0.126-1.279,0.752-2.451,1.408-3.683c0.392-0.708,0.79-1.431,1.1-2.214l0.581-1.501L206.665,191.037z M190.854,195.427
		c-1.446,2.274-3.304,3.408-6.437,3.907c-1.162,0.202-2.104-0.221-2.947-1.272c-2.074-2.59-3.161-5.319-3.143-7.902
		c0.01-2.764,0.847-5.786,2.395-8.711c1.175-2.198,2.464-4.44,4.453-5.741l0.281,0.139c0.427,0.253,0.752,0.451,1.096,0.669
		c0.266,0.161,0.531,0.36,0.777,0.565c0.694,0.55,1.469,1.153,2.413,1.241c0.632,0.045,1.017,0.373,1.598,0.913
		c0.436,0.411,0.929,0.872,1.706,1.124C193.76,185.279,194,190.516,190.854,195.427"/>
	<path fill="#FFFFFF" d="M86.974,211.595c-0.035,0.022-0.074,0.06-0.111,0.104c0.172,0.284,0.25,0.612,0.226,0.944
		c-0.066,0.925-0.809,1.73-2.164,2.391l0.398,1.193l-0.845,0.338c-0.558,0.225-1.09,0.509-1.644,0.793
		c-1.277,0.654-2.593,1.333-3.999,1.409c-0.079,0.003-0.139,0.006-0.216-0.007c-4.033,0.057-8.761-0.041-13.339-1.011
		c-4.656-0.988-8.526-3.366-11.48-7.03c-2.857-3.55-5.125-7.132-6.955-10.972c-0.442-0.938-0.654-1.945-0.881-2.912
		c-0.056-0.31-0.133-0.619-0.207-0.929c-0.878-3.639-1.619-7.946-0.374-12.109c1-3.322,2.195-5.881,3.637-7.839
		c2.579-3.465,5.665-6.568,8.379-9.298c3.239-3.25,6.918-4.778,11.215-4.655c2.745,0.069,5.514,0.158,7.839,2.242
		c1.132,1.021,2.208,2.119,3.264,3.178l0.332,0.354c0.373,0.373,0.38,0.862,0.396,1.137c0.211,2.164-1.519,4.978-3.08,5.846
		c-1.922,1.064-3.976,1.488-6.473,1.33c-2.811-0.164-4.688,1.696-6.701,3.664l-0.744,0.707c-3.376,3.234-4.185,7.183-2.453,12.062
		l0.158,0.424c0.759,2.112,1.524,4.305,2.809,5.984c2.446,3.26,6.091,4.706,11.13,4.438c0.684-0.034,1.399-0.228,2.149-0.445
		c0.542-0.167,1.083-0.312,1.646-0.423c1.377-0.25,2.757-0.48,4.136-0.691l2.742-0.417l0.338,3.427l2.015-0.42l0.136,1.052
		c0.035,0.31,0.112,0.622,0.169,0.95c0.183,0.872,0.375,1.879,0.112,2.833C88.272,210.192,87.605,210.894,86.974,211.595"/>
	<path fill="#FFFFFF" d="M250.193,206.055l2.521,1.684l-3.803,0.796c-0.076,0.061-0.171,0.164-0.259,0.246
		c-0.335,0.354-0.759,0.787-1.384,0.841c-0.587,0.069-1.188,0.157-1.794,0.252c-0.853,0.123-1.712,0.266-2.564,0.31
		c-0.96,0.051-1.883-0.016-2.779-0.297c-3.114-0.991-5.211-3.701-5.508-7.056c-0.342-3.742-0.683-7.488-0.854-11.199
		c-0.151-3.13-0.239-6.26-0.328-9.39c-0.038-1.469-0.082-2.915-0.12-4.381l-0.676-20.832c-0.095-2.796-0.164-5.591-0.315-8.389
		c-0.063-1.251-0.196-2.498-0.316-3.745c-0.146-1.245-0.271-2.493-0.335-3.743l-0.013-0.193c-0.088-1.683-0.183-3.398,0.222-5.028
		c0.341-1.352,1.516-2.805,3.297-2.76l0.025-0.003c1.623-1.052,3.739-1.904,5.912-0.357c0.733,0.509,1.226,1.207,1.668,1.908
		c0.215,0.303,0.43,0.606,0.638,0.869c0.316,0.395,0.651,0.749,0.961,1.125c0.423,0.489,0.858,0.954,1.231,1.462
		c0.36,0.433,0.41,0.979,0.448,1.371c0.095,1.052,0.189,2.046,0.259,3.042c0.152,1.676,0.297,3.35,0.468,5.012
		c0.107,1.01,0.24,2.002,0.373,2.994c0.195,1.479,0.416,3.016,0.518,4.535c0.069,0.881-0.025,1.73-0.12,2.555
		c-0.051,0.553-0.113,1.103-0.12,1.652c0,0.41,0.082,0.837,0.164,1.308c0.058,0.366,0.14,0.755,0.158,1.128l0.082,0.717
		c0.146,1.718,0.297,3.474,0.354,5.229c0.032,0.55-0.157,1.049-0.334,1.491l0.119,0.366l0.063,6.715l-0.31-0.022
		c0.714,2.078,1.011,6.196,0.878,9.182l0.43-0.411l0.291,5.467l-0.683,0.114c-0.006,0.218-0.013,0.433-0.038,0.65
		c-0.057,0.474-0.228,0.913-0.366,1.292c-0.101,0.259-0.208,0.521-0.253,0.776c-0.013,0.12-0.062,0.24-0.101,0.342
		c0.884,0.694,1.213,1.658,1.554,2.58c0.063,0.212,0.139,0.442,0.228,0.653l4.245,0.929l-0.923,1.384l1.604,0.461l-1.63,1.361
		l2.047,0.891l-1.75,0.584l2.375,0.383l-5.306,2.71L250.193,206.055z"/>
	<path fill="#FFFFFF" d="M283.191,198.042l-1.479,1.785l-0.758,1.544l-0.284-0.139c-0.031,0.041-0.051,0.06-0.069,0.082
		c-0.524,0.518-1.042,1.055-1.668,1.519c-0.486,0.36-1.067,0.528-1.572,0.651l-0.404,0.12c-0.461,0.164-0.929,0.227-1.358,0.249
		c-1.465,0.076-2.805-0.436-4.023-0.903c-0.72-0.271-1.074-1.073-1.264-1.655c-0.113-0.385-0.215-0.751-0.297-1.162
		c-0.366,0.063-0.682,0.038-0.903-0.047c-0.739-0.215-1.282-0.853-1.566-1.835c-0.676-2.375-0.392-4.371,0.834-5.963l0.392-0.49
		c0.802-1.083,1.73-2.309,3.55-2.813c3.203-0.919,6.108-0.095,7.94,2.255c0.177,0.031,0.619,0.243,0.884,0.855
		c0.164,0.13,0.271,0.301,0.342,0.49c0.044,0.019,0.075,0.019,0.119,0.034l0.354,0.041l0.252,0.284
		c0.373,0.427,0.537,0.967,0.475,1.497c-0.013,0.196-0.076,0.398-0.152,0.56L283.191,198.042z"/>
	<path fill="#FFFFFF" d="M136.784,210.891c-0.019,0.021-0.057,0.062-0.076,0.082l-0.041-0.038
		C136.705,210.916,136.743,210.912,136.784,210.891"/>
	<path fill="#FFFFFF" d="M136.784,210.891c-0.019,0.021-0.057,0.062-0.076,0.082l-0.12,0.01c0.025-0.022,0.06-0.025,0.079-0.048
		C136.705,210.916,136.743,210.912,136.784,210.891"/>
	<path fill="#FFFFFF" d="M137.15,211.91l-0.411,0.437l-0.224-0.206c0.136-0.065,0.265-0.151,0.379-0.218L137.15,211.91z"/>
</g>
</svg>
