<?xml version="1.0" encoding="utf-8"?>
<!-- Generator: Adobe Illustrator 16.0.3, SVG Export Plug-In . SVG Version: 6.00 Build 0)  -->
<!DOCTYPE svg PUBLIC "-//W3C//DTD SVG 1.1//EN" "http://www.w3.org/Graphics/SVG/1.1/DTD/svg11.dtd">
<svg version="1.1" id="Layer_2" xmlns="http://www.w3.org/2000/svg" xmlns:xlink="http://www.w3.org/1999/xlink" x="0px" y="0px"
	 width="288px" height="288px" viewBox="0 0 288 288" enable-background="new 0 0 288 288" xml:space="preserve">
<path fill="#231F20" d="M215.021,145.605c-0.123-2.789-0.197-5.581-0.361-8.367c-0.316-5.433-0.729-10.859-1.012-16.294
	c-0.256-4.925-0.367-9.856-0.582-14.782c-0.322-7.425-0.801-14.843-0.98-22.27c-0.16-6.611-0.049-13.23,0.027-19.845
	c0.053-4.562,0.266-9.122,0.352-13.682c0.006-0.383-0.336-0.857-0.65-1.141c-0.457-0.415-1.029-0.712-1.568-1.027
	c-0.545-0.32-1.113-0.863-1.67-0.86c-3.322,0.022-6.65,0.103-9.967,0.299c-5.6,0.329-11.188,0.837-16.789,1.118
	c-3.777,0.189-7.576,0.025-11.359,0.188c-4.523,0.193-9.039,0.546-13.557,0.867c-4.043,0.287-8.09,0.565-12.124,0.962
	c-2.491,0.246-4.952,0.836-7.444,1.037c-3.316,0.267-6.648,0.302-9.973,0.445c-0.75,0.033-1.499,0.14-2.25,0.153
	c-3.138,0.052-6.291-0.087-9.414,0.161c-3.477,0.275-6.921,0.927-10.388,1.351c-2.561,0.314-5.151,0.847-7.693,0.699
	c-2.998-0.175-5.875,0.03-8.743,0.805c-0.151,0.041-0.325,0.029-0.483,0.006c-3.121-0.462-6.125,0.168-9.104,0.989
	c-0.24,0.066-0.469,0.24-0.661,0.411c-1.372,1.217-2.732,2.448-4.25,3.812c-0.016,0.153-0.017,0.659-0.136,1.135
	c-0.16,0.642-0.585,1.258-0.594,1.891c-0.048,3.083,0.077,6.172,0.006,9.257c-0.181,7.863-0.568,15.723-0.61,23.587
	c-0.031,5.688,0.32,11.383,0.577,17.071c0.148,3.24,0.521,6.47,0.666,9.709c0.254,5.688,0.401,11.378,0.613,17.066
	c0.144,3.84,0.461,7.681,0.433,11.52c-0.013,1.923,0.027,3.829-0.769,5.812c-2.562,6.391-4.727,12.939-7.083,19.414
	c-1.149,3.154-2.299,6.313-3.606,9.403c-1.659,3.923-3.533,7.755-5.213,11.669c-2.162,5.037-4.162,10.145-6.352,15.169
	c-1.344,3.084-2.906,6.074-4.385,9.101c-0.567,1.159-1.178,2.298-1.762,3.448c-1.136,2.243-2.268,4.485-3.395,6.732
	c-0.07,0.141-0.09,0.314-0.107,0.476c-0.196,1.822-0.401,3.643-0.573,5.468c-0.135,1.432,0.518,2.215,2.071,2.205
	c2-0.013,4.005-0.144,5.997-0.334c3.911-0.372,7.806-0.936,11.722-1.191c2.24-0.147,4.509,0.245,6.765,0.232
	c3.811-0.021,7.623-0.166,11.433-0.266c4.433-0.117,8.865-0.26,13.297-0.355c5.663-0.122,11.331-0.38,16.989-0.264
	c6.761,0.139,13.512,0.67,20.271,0.926c7.753,0.293,15.509,0.547,23.269,0.678c9.076,0.151,18.146-0.017,27.195-0.915
	c2.67-0.265,5.381-0.088,8.072-0.14c3.719-0.072,7.426,1.347,11.178-0.288c2.004-0.875,2.615-1.734,1.613-3.714
	c-0.252-0.499-0.57-1.098-0.506-1.604c0.658-5.095,1.293-10.194,2.133-15.26c0.492-2.961,1.338-5.862,2.074-8.991
	c1.527,1.25,2.848,1.945,4.506,0.951c1.012-0.605,2.502-2.648,2.15-3.455c-0.223-0.507-0.904-0.885-1.465-1.133
	c-0.234-0.104-0.682,0.277-1.578,0.689c0.83,0.394,1.27,0.602,1.6,0.759c-0.594,1.63-1.547,1.774-2.506,1.465
	c0.125-0.942,0.592-1.959,0.266-2.464c-0.904-1.399-1.576,0.707-2.428,0.481c0.443-2.91,0.816-5.761,1.326-8.586
	c0.551-3.059,1.135-6.115,1.875-9.13c0.781-3.186,2.023-6.274,2.604-9.489c1.328-7.362,2.408-14.771,3.527-22.17
	c0.479-3.161,0.805-6.345,1.217-9.652C215.002,147.741,215.066,146.625,215.021,145.605 M86.638,57.176
	c1.488-0.004,2.974-0.373,4.467-0.458c3.186-0.182,6.378-0.249,9.563-0.435c2.472-0.145,4.936-0.41,7.404-0.603
	c4.359-0.34,8.717-0.69,13.079-0.992c4.793-0.334,9.585-0.723,14.385-0.903c7.928-0.297,15.673-2.27,23.678-2.101
	c5.789,0.122,11.6-0.759,17.404-1.131c1.213-0.077,2.447,0.208,3.666,0.171c3.432-0.103,6.859-0.297,10.287-0.436
	c4.049-0.163,8.098-0.292,12.145-0.462c1.68-0.072,3.354-0.264,5.033-0.288c0.436-0.006,1.111,0.322,1.252,0.67
	c0.127,0.314-0.209,0.987-0.537,1.289c-1.457,1.342-2.982,2.609-4.484,3.904c-0.225-2.12-0.412-2.245-2.512-2.062
	c-5.295,0.461-10.588,0.977-15.891,1.326c-3.803,0.25-7.625,0.228-11.432,0.403c-2.807,0.127-5.605,0.459-8.41,0.548
	c-2.779,0.089-5.564-0.094-8.344-0.013c-7.907,0.228-15.812,0.533-23.721,0.805c-3.587,0.123-7.182,0.162-10.765,0.38
	c-3.31,0.202-6.608,0.602-9.913,0.895c-3.421,0.301-6.842,0.62-10.268,0.854c-4.396,0.301-8.797,0.503-13.192,0.792
	c-1.619,0.106-3.228,0.333-4.841,0.519c-2.428,0.279-4.855,0.571-7.088,0.834C79.773,57.765,83.066,57.182,86.638,57.176
	 M50.143,222.377c3.162-5.889,5.413-12.142,7.823-18.345c1.844-4.742,3.788-9.479,6.129-13.988c3.056-5.89,5.04-12.16,7.315-18.335
	c1.433-3.889,2.794-7.803,4.207-11.698c0.618-1.702,1.47-3.345,1.858-5.095c0.242-1.093-0.235-2.332-0.302-3.51
	c-0.312-5.485-0.644-10.971-0.869-16.461c-0.13-3.217-0.004-6.444-0.12-9.662c-0.11-3.054-0.417-6.098-0.582-9.148
	c-0.183-3.379-0.289-6.762-0.455-10.141c-0.148-3.051-0.457-6.1-0.461-9.149c-0.004-2.464,0.438-4.927,0.512-7.396
	c0.177-5.82,0.202-11.647,0.396-17.469c0.09-2.686,0.396-5.369,0.7-8.042c0.042-0.377,0.582-0.911,0.975-1
	c1.52-0.338,3.064-0.609,4.615-0.756c5.748-0.541,11.502-1.031,17.255-1.525c3.896-0.334,7.792-0.702,11.694-0.942
	c5.009-0.309,10.028-0.459,15.037-0.765c3.829-0.232,7.647-0.673,11.478-0.884c3.004-0.167,6.02-0.118,9.03-0.176
	c3.724-0.072,7.446-0.177,11.171-0.226c3.359-0.044,6.725,0.072,10.08-0.074c3.756-0.163,7.502-0.597,11.26-0.806
	c2.943-0.162,5.904-0.053,8.844-0.256c3.502-0.242,6.984-0.753,10.486-1.02c1.898-0.145,3.818-0.029,5.73-0.028
	c0.227,2.074,0.574,4.141,0.635,6.214c0.096,3.29-0.016,6.585-0.021,9.878c-0.016,8.43-0.031,16.858-0.023,25.289
	c0.006,8.521-0.121,17.049,0.105,25.566c0.203,7.592,0.83,15.171,1.219,22.758c0.117,2.301-0.023,4.616,0.143,6.911
	c0.041,0.545,0.842,1.034,1.293,1.549c0.389-0.554,1.145-1.128,1.111-1.656c-0.406-6.55-1.062-13.086-1.387-19.639
	c-0.326-6.624-0.453-13.263-0.486-19.896c-0.047-9.554,0.098-19.109,0.094-28.665c-0.002-3.006-0.27-6.012-0.332-9.02
	c-0.064-3.172-0.025-6.345-0.043-9.516c-0.014-2.632-0.062-5.263-0.051-7.895c0.002-0.51,0.035-1.179,0.342-1.502
	c1.178-1.243,2.473-2.375,4.045-3.852c-0.129,1.997-0.311,3.67-0.332,5.345c-0.059,4.604-0.029,9.21-0.074,13.814
	c-0.025,2.627-0.17,5.252-0.189,7.879c-0.033,4.096-0.184,8.2,0.041,12.283c0.33,6.028,1.035,12.035,1.406,18.062
	c0.258,4.195,0.156,8.41,0.33,12.612c0.252,6.042,0.623,12.077,0.912,18.119c0.115,2.43,0.154,4.862,0.211,7.295
	c0.006,0.247-0.037,0.54-0.166,0.741c-1.014,1.583-2.078,3.133-3.072,4.727c-0.34,0.546-0.527,1.188-0.838,1.905
	c0.611,0.07,0.934,0.106,1.346,0.154c-0.26,1.212-0.496,2.305-0.727,3.399c-0.744,3.532-1.439,7.075-2.24,10.595
	c-0.863,3.778-1.91,7.517-2.717,11.308c-0.715,3.36-1.158,6.779-1.818,10.154c-0.75,3.849-1.715,7.657-2.398,11.516
	c-0.961,5.433-1.703,10.904-2.635,16.342c-0.379,2.217-1.01,4.39-1.516,6.586c-0.238,1.039-0.516,2.075-0.658,3.129
	c-0.148,1.084-0.852,1.46-1.758,1.734c-5.938,1.795-12.029,1.794-18.156,1.764c-4.705-0.023-9.408,0.44-14.115,0.583
	c-5.748,0.175-11.5,0.336-17.252,0.324c-5.695-0.013-11.387-0.29-17.083-0.37c-2.733-0.038-5.467,0.143-8.202,0.161
	c-3.365,0.023-6.732,0.001-10.098-0.034c-5.275-0.056-10.554-0.042-15.826-0.237c-4.569-0.17-9.127-0.598-13.692-0.893
	c-0.909-0.059-1.824-0.059-2.735-0.052c-3.771,0.034-7.544,0.029-11.312,0.136c-5.5,0.154-10.996,0.396-16.496,0.588
	c-0.949,0.033-1.899,0.006-3.024,0.006C47.232,228.458,48.55,225.345,50.143,222.377 M213.758,157.525
	c-0.951,5.795-1.818,11.61-3.023,17.355c-0.912,4.354-2.346,8.598-3.441,12.917c-0.66,2.594-1.178,5.229-1.654,7.864
	c-0.648,3.603-1.182,7.228-1.793,10.839c-1.295,7.678-2.611,15.354-3.914,23.03c-0.115,0.679-0.195,1.362-0.291,2.054
	c-1.646,0.375-1.656,0.449-0.814,2.086c0.467,0.908,0.826,1.872,1.26,2.87c-2.084,1.133-4.43,0.914-6.963,0.647
	c-3.791-0.4-7.654-0.319-11.479-0.177c-5.967,0.225-11.924,0.849-17.891,0.978c-7.131,0.153-14.271,0.058-21.404-0.11
	c-5.455-0.128-10.903-0.574-16.358-0.809c-4.688-0.201-9.38-0.357-14.072-0.43c-4.452-0.068-8.907-0.04-13.36,0.014
	c-5.24,0.063-10.478,0.217-15.717,0.302c-3.705,0.061-7.437-0.184-11.109,0.185c-3.219,0.321-6.358,0.257-9.547-0.07
	c-1.086-0.11-2.222,0.415-3.345,0.491c-4.024,0.274-8.055,0.47-12.079,0.723c-0.785,0.049-1.56,0.223-2.353,0.342
	c-0.092-0.271-0.189-0.42-0.187-0.566c0.065-4.136,0.23-4.26,4.352-4.426c4.3-0.173,8.592-0.52,12.894-0.627
	c2.317-0.057,4.643,0.282,6.967,0.344c1.772,0.047,3.55-0.119,5.324-0.089c3.152,0.055,6.301,0.192,9.452,0.283
	c1.996,0.058,3.991,0.076,5.987,0.143c6.076,0.201,12.15,0.49,18.228,0.606c5.067,0.097,10.136-0.048,15.204,0
	c5.562,0.054,11.125,0.332,16.688,0.284c7.771-0.067,15.541-0.338,23.311-0.541c3.9-0.103,7.803-0.224,11.701-0.384
	c4.57-0.189,9.166-0.195,13.697-0.725c3.65-0.426,7.225-1.515,10.984-2.342c0.266-1.194-0.066-1.981-1.381-1.885
	c1.479-8.378,2.896-16.686,4.422-24.974c1.199-6.515,2.467-13.018,3.822-19.501c1.875-8.951,3.891-17.875,5.771-26.825
	c0.301-1.437,0.039-2.996,0.367-4.422c0.326-1.412,0.963-2.811,2.852-3.645C214.475,152.254,214.189,154.902,213.758,157.525"/>
<path fill="#231F20" d="M285.49,186.198c-0.141-1.253-1.441-2.312-2.672-2.438c-2.775-0.289-5.559-0.562-8.312-1.005
	c-4.236-0.68-8.445-1.504-12.67-2.253c-4.277-0.757-8.566-1.445-12.83-2.265c-2.098-0.402-4.143-1.07-6.227-1.547
	c-1.129-0.257-2.289-0.362-2.682,1.153c-1.711-0.919-3.211-0.273-4.176,1.664c-0.176,0.352-0.596,0.925-0.77,0.88
	c-2.039-0.52-1.902,1.134-2.16,2.204c-0.668,2.771-1.225,5.571-1.805,8.364c-0.754,3.637-1.645,7.254-2.18,10.924
	c-0.482,3.302-0.564,6.663-0.834,10.161c-0.234,0.04-0.502,0.077-0.764,0.136c-2.416,0.536-4.859,0.978-7.225,1.682
	c-0.635,0.188-1.031,1.176-1.539,1.797c0.58,0.451,1.113,0.996,1.756,1.316c0.395,0.197,0.965,0.097,1.449,0.053
	c2.145-0.193,4.285-0.44,6.432-0.607c0.387-0.03,0.791,0.236,1.193,0.34c1.244,0.32,2.516,0.967,3.732,0.881
	c5.691-0.402,11.361-1.121,17.051-1.487c2.18-0.141,4.438,0.702,6.596,0.475c3.125-0.327,6.189-0.312,9.291,0.03
	c3.52,0.388,7.064,0.559,10.568,1.037c1.479,0.202,2.215-0.092,2.264-1.038c1.035-0.695,1.887-1.042,2.402-1.666
	c0.779-0.943,1.367-2.057,1.961-3.138c2.264-4.113,3.176-8.686,3.355-13.226C286.857,194.504,285.955,190.341,285.49,186.198
	 M231.562,215.256l-0.559-0.097c-0.217-0.9-0.643-1.808-0.613-2.7c0.145-4.383,0.256-8.778,0.691-13.139
	c0.248-2.472,1.088-4.887,1.676-7.321c0.617-2.552,1.018-5.19,1.955-7.62c0.742-1.924,2.152-3.59,3.266-5.37l0.533,0.119
	c0.217,0.558,0.672,1.141,0.613,1.667c-0.553,4.959-1.195,9.908-1.809,14.86c-0.146,1.18-0.295,2.358-0.416,3.542
	c-0.436,4.238-1.586,8.316-2.973,12.312C233.455,212.867,232.369,214.013,231.562,215.256 M274.709,184.702
	c2.812,0.463,5.625,0.925,8.439,1.387c2.852,10.518,1.877,20.393-4.057,29.56c-14.969-1.155-29.965-2.215-45.068-0.104
	c0.574-1.262,1.121-2.339,1.566-3.456c1.752-4.385,2.881-8.915,3.307-13.632c0.133-1.488,0.658-2.937,0.904-4.419
	c0.465-2.813,0.975-5.628,1.238-8.465c0.197-2.141,0.037-4.314,0.037-6.526c3.527-0.779,6.752,1.442,10.291,1.892"/>
<path fill="#231F20" d="M71.682,219.134c0.543-1.913,1.012-3.872,1.213-5.847c0.108-1.044,0.485-1.842,1.335-1.943
	c1.625-0.195,3.292-0.057,5.042-0.057c-0.244,1.43-0.348,2.594-0.668,3.696c-0.172,0.595-0.615,1.399-1.108,1.554
	c-1.18,0.366-2.485,0.31-3.69,0.621c-0.439,0.112-0.736,0.781-1.098,1.196c0.4,0.307,0.846,0.922,1.194,0.873
	c1.709-0.247,3.612-0.112,4.583-1.729c0.534,0.431,0.99,0.797,1.841,1.483c-0.408-3.155,1.13-5.909-0.56-8.572
	c7.493,1.261,14.914,0.974,22.494-0.158c-0.426,2.565-0.786,4.886-1.222,7.19c-0.063,0.332-0.439,0.678-0.758,0.875
	c-1.684,1.038-3.432,0.724-5.288,0.445c-1.373-0.206-1.424-0.7-1.156-1.724c0.329-1.249,0.701-2.489,0.918-3.757
	c0.06-0.348-0.302-1.021-0.599-1.107c-0.317-0.093-1.067,0.257-1.142,0.54c-0.642,2.441-1.191,4.908-1.715,7.378
	c-0.067,0.318,0.066,0.905,0.279,1.008c0.326,0.154,0.804,0.018,1.213-0.036c0.514-0.067,1.058-0.342,1.528-0.24
	c2.653,0.578,5.049,0.369,7.271-1.463c0.832-0.687,1.195-1.254,1.287-2.312c0.193-2.24,0.609-4.461,0.969-6.938h13.916
	c0.053,0.161,0.106,0.322,0.158,0.484c-0.907,0.681-1.754,1.469-2.734,2.018c-1.554,0.868-2.932,3.307-2.355,4.708
	c0.272,0.659,0.898,1.173,1.39,1.786h-3.979c0.336-1.662,0.662-3.271,0.977-4.828c-1.633-0.591-2.217-0.059-2.359,1.359
	c-0.1,1.004-0.523,1.97-0.695,2.973c-0.134,0.775-0.434,1.971-0.066,2.283c0.572,0.487,1.648,0.514,2.507,0.498
	c1.122-0.02,2.239-0.291,3.362-0.42c1.196-0.138,2.733,0.647,3.255-1.272c0.04-0.144,0.464-0.226,0.72-0.258
	c2.639-0.344,5.28-0.67,8.153-1.03c-0.176,0.611-0.293,0.938-0.358,1.275c-0.075,0.388-0.041,0.803-0.16,1.172
	c-0.449,1.387-0.03,2.084,1.406,2.053c1.879-0.041,3.761-0.132,5.63-0.313c0.781-0.076,1.657-0.342,1.315-1.591
	c-1.9-0.174-3.801-0.346-5.798-0.528c0.194-0.808,0.351-1.462,0.46-1.914h5.491c0.469,1.068,0.847,1.93,1.207,2.751
	c0.85-1.047,1.384-2.344,2.066-2.427c2.225-0.272,4.504-0.103,6.869-0.103c-0.053,0.262-0.314,0.749-0.176,1.062
	c0.231,0.529,0.684,1.311,1.102,1.349c1.684,0.153,3.389,0.063,5.344,0.063c-0.58-2.579-2.992-1.183-4.502-2.66
	c2.095-0.226,3.803-0.41,5.693-0.613c0,0.773-0.107,1.334,0.033,1.825c0.115,0.408,0.521,0.732,0.799,1.095
	c0.324-0.376,0.801-0.702,0.939-1.137c0.198-0.619,0.152-1.317,0.209-1.973c0.658-0.054,1.145-0.125,1.633-0.129
	c2.568-0.022,2.549-0.01,3.389,2.405c0.35,1.003,1.064,1.705,2.199,1.499c1.311-0.237,2.604-0.608,3.877-1.005
	c0.254-0.079,0.387-0.537,0.84-1.223c-1.264,0.125-2.125,0.22-2.988,0.292c-2.047,0.168-2.189,0.015-2.029-2.089
	c2.713-0.677,5.422-1.352,8.055-2.01c-0.219,1.536-0.486,3.088-0.623,4.648c-0.031,0.344,0.398,0.729,0.617,1.093
	c0.426-0.294,1.156-0.531,1.223-0.891c0.328-1.809,0.482-3.648,0.73-5.74c0.551-0.293,1.354-0.869,2.248-1.155
	c1.316-0.423,1.174-1.15,0.705-2.101c-1.137-2.311-2.9-3.68-5.539-3.856c-0.357-0.023-0.869-0.321-0.986-0.619
	c-0.092-0.24,0.219-0.779,0.496-1c3.096-2.453,6.896-2.549,10.697-3.338c-0.346,1.16-0.605,2.079-0.895,2.99
	c-0.441,1.392-0.07,2.317,1.439,2.663c1.049,0.239,2.146,0.395,3.121,0.819c2.041,0.893,3.52-0.54,5.104-1.232
	c0.477-0.209,0.424-1.639,0.602-2.512c0.158-0.793,0.408-1.588,0.42-2.384c0.016-0.932-0.184-1.866-0.301-2.9
	c0.949-0.402,2.287-0.838,3.475-1.532c0.58-0.341,1.164-1.135,1.232-1.778c0.1-0.935-0.186-1.958-1.41-2.24
	c-1.375-0.317-2.73-0.727-4.115-0.982c-0.754-0.138-1.391-0.192-1.268-1.198c0.15-1.226,0.193-2.47,0.418-3.682
	c0.502-2.701,0.486-3.068-2.018-3.974c-1.408-0.51-3.143-0.806-4.535-0.447c-1.078,0.279-2.312,1.579-2.662,2.683
	c-0.551,1.746-0.418,3.708-0.562,5.578c-0.004,0.067,0.146,0.146,0.287,0.278c1.105-0.081,1.822-0.59,1.895-1.83
	c0.094-1.594,0.205-3.186,0.324-5.021c1.539,0.158,3.098,0.228,4.609,0.53c0.396,0.08,0.9,0.872,0.914,1.352
	c0.037,1.281-0.252,2.57-0.248,3.854c0.006,1.29-0.494,1.646-1.76,1.617c-3.406-0.075-6.814,0.004-10.225,0.015
	c-0.42,0.002-0.838-0.035-0.914-0.037c0.215-2.886,0.432-5.665,0.605-8.447c0.018-0.259-0.156-0.613-0.357-0.789
	c-1.342-1.166-6.398-1.469-7.82-0.508c-0.322,0.219-0.668,0.58-1,0.576c-1.117-0.011-2.234-0.236-3.352-0.235
	c-4.475,0.009-8.953-0.001-13.328,1.209c-1.133,0.313-2.925,0.993-3.365,0.522c-1.176-1.258-2.314-0.642-3.408-0.498
	c-3.498,0.459-7.006,0.125-10.551,0.856c-5.529,1.145-11.249,1.342-16.865,2.105c-3.433,0.466-7.13,0.404-9.642,3.506
	c-0.061,0.075-0.295,0.01-0.543,0.01c0-0.335,0.092-0.682-0.024-0.933c-0.13-0.281-0.463-0.68-0.679-0.663
	c-0.354,0.027-0.979,0.352-0.977,0.547c0.011,1.996-1.015,4.078,0.702,6.493c0.339-1.312,0.575-2.222,0.877-3.389
	c1.617,3.135,5.158,2.793,7.591,4.367c-0.025,0.232-0.052,0.464-0.079,0.696c-4.636,0.671-9.272,1.341-13.91,2.012
	c-0.029-0.19-0.058-0.379-0.087-0.567c1.368-0.243,2.735-0.483,4.208-0.742c-0.203-0.664-0.338-1.102-0.459-1.498
	c-3.521-0.203-3.987,0.072-4.28,2.381c-1.135,0.165-2.272,0.243-3.366,0.504c-3.989,0.944-7.992,1.85-11.925,2.992
	c-1.26,0.366-2.567,1.221-3.375,2.233c-0.458,0.574,0.051,1.922,0.118,2.821c-1.314,0.281-2.801,0.514-4.222,0.962
	c-0.372,0.116-0.819,0.943-0.748,1.363c0.436,2.586-0.075,4.991-0.988,7.39c-0.175,0.462,0.177,1.124,0.287,1.694
	C70.694,219.838,71.553,219.589,71.682,219.134 M185.967,203.845c-0.07,1.065-0.262,2.124-0.408,3.268
	c-2.186,0.693-4.082-0.371-6.045-1.028c0.719-4.237,1.709-5.07,6.467-5.397C185.98,201.742,186.035,202.798,185.967,203.845
	 M169.838,184.97c0.494,3.264,0.213,6.267-0.881,8.182c-1.932-0.289-3.797-0.57-5.662-0.851c-0.055-0.217-0.109-0.434-0.164-0.65
	c1.557-0.842,3.135-1.646,4.656-2.546c0.533-0.316,1.217-0.803,1.324-1.317c0.195-0.93-0.631-1.293-1.434-1.575
	c-0.699-0.246-1.348-0.635-2.027-1.242H169.838z M138.012,186.688l-0.751,0.054C137.512,186.711,137.764,186.688,138.012,186.688
	 M78.202,206.288c2.137-0.958,4.284-1.971,6.528-2.595c2.582-0.718,5.265-1.093,7.92-1.507c1.168-0.183,2.387-0.017,3.569-0.143
	c4.078-0.435,8.164-0.831,12.208-1.477c0.815-0.131,1.876-1.18,2.093-1.998c0.327-1.235,0.064-2.6-1.697-2.994
	c-1.384-0.312-2.73-0.825-4.068-1.317c-1.755-0.647-1.886-1.451-0.374-2.566c2.078-1.531,4.538-1.742,7.021-1.989l40.229-3.76
	c2.136-0.18,4.296-0.104,6.429-0.305c2.863-0.271,5.355,0.851,8.246,1.902c-1.373,0.784-2.443,1.377-3.492,2.005
	c-0.357,0.215-0.744,0.458-0.982,0.786c-1.562,2.146-0.713,3.825,2.312,4.122c3.688,0.362,7.396,0.509,11.102,0.636
	c4.133,0.142,8.275,0.098,12.408,0.271c0.914,0.039,1.805,0.651,2.705,1.001c-0.785,0.49-1.51,1.21-2.367,1.433
	c-4.822,1.25-9.705,2.282-14.512,3.595c-2.301,0.629-4.568,1.539-6.668,2.663c-1.008,0.539-2.262,1.9-2.219,2.838
	c0.076,1.729,1.848,2.439,3.441,2.521c1.605,0.083,2.5,0.888,3.484,2.469c-1.723,0.745-3.303,1.62-4.994,2.115
	c-2.58,0.754-5.213,1.378-7.863,1.802c-1.895,0.303-3.859,0.138-5.787,0.267c-4.459,0.298-8.91,0.788-13.374,0.931
	c-3.507,0.109-7.028-0.312-10.539-0.261c-3.28,0.049-6.566,0.314-9.828,0.684c-1.208,0.136-2.465-0.908-3.596,0.184
	c-0.224-0.565-0.799-1.382-0.607-1.649c0.736-1.03,1.686-1.917,2.618-2.796c0.892-0.841,1.963-1.516,2.741-2.443
	c0.341-0.406,0.146-1.261,0.218-2.217c-2.542-0.111-4.888-0.314-7.231-0.291c-3.832,0.038-7.666,0.173-11.493,0.369
	c-2.023,0.104-4.031,0.522-6.054,0.627c-4.847,0.251-9.705,0.554-14.514-0.453c-0.987-0.206-2.005-0.37-2.932-0.743
	C77.225,207.579,77.092,206.787,78.202,206.288"/>
<path fill="#231F20" d="M81.228,103.285c0.409,4.883,0.957,9.762,1.177,14.653c0.231,5.165,0.168,10.343,0.195,15.516
	c0.017,3.017,0.002,6.034-0.083,9.05c-0.05,1.801,1.678,3.544,3.414,3.266c4.842-0.777,9.666-1.687,14.524-2.32
	c4.979-0.651,9.988-1.095,14.995-1.519c2.953-0.249,5.968-0.006,8.875-0.477c4.875-0.791,9.74-1.334,14.681-1.231
	c3.563,0.073,7.13,0.027,10.692,0.113c2.568,0.061,5.132,0.351,7.696,0.349c2.318-0.001,4.633-0.312,6.951-0.393
	c3.266-0.115,6.533-0.101,9.797-0.22c3.855-0.14,7.709-0.374,11.566-0.546c1.307-0.06,2.086-0.592,2.102-2.233
	c-1.01-0.091-1.971-0.299-2.916-0.241c-4.824,0.29-9.639,0.702-14.463,0.971c-5.02,0.278-10.043,0.594-15.064,0.609
	c-3.928,0.013-7.854-0.503-11.784-0.611c-3.678-0.103-7.479-0.554-11.021,0.165c-7.36,1.496-14.846,1.104-22.215,2.146
	c-2.645,0.374-5.322,0.503-7.974,0.833c-2.551,0.316-5.086,0.75-7.629,1.131c-3.295,0.49-6.59,0.98-9.879,1.47
	c0.066-0.192,0.255-0.48,0.251-0.766c-0.037-3.226-0.067-6.451-0.171-9.675c-0.148-4.558-0.358-9.112-0.542-13.669
	c-0.128-3.147-0.22-6.297-0.404-9.441c-0.087-1.496-0.415-2.978-0.523-4.475c-0.203-2.758-0.083-5.561-0.53-8.273
	c-0.98-5.949-0.278-11.865-0.027-17.794c0.131-3.12,0.355-6.237,0.417-9.358c0.036-1.775-0.892-2.173-2.154-1.381
	c0,1.494,0.063,2.649-0.012,3.794c-0.187,2.79-0.556,5.572-0.634,8.363c-0.123,4.369-0.167,8.745-0.052,13.112
	C80.564,97.235,80.974,100.257,81.228,103.285"/>
<path fill="#231F20" d="M84.616,68.808c2.25-0.155,4.506-0.253,6.76-0.354c3.424-0.153,6.865-0.134,10.271-0.471
	c4.903-0.485,9.767-1.44,14.676-1.805c6.913-0.512,13.85-0.822,20.78-0.929c7.154-0.11,14.317,0.033,21.469,0.24
	c6.943,0.201,13.879,0.691,20.822,0.922c4.225,0.139,8.457,0.024,12.6,0.024c-0.182,3.75-0.352,7.335-0.531,10.92
	c-0.287,5.764-0.67,11.524-0.836,17.292c-0.107,3.645,0.201,7.302,0.154,10.95c-0.061,4.624-0.227,9.251-0.471,13.87
	c-0.254,4.796-0.66,9.582-0.984,14.373c-0.129,1.936-0.928,3.892,0.613,5.987c0.543-1.091,1.27-2.133,1.578-3.286
	c0.301-1.13,0.17-2.373,0.234-3.566c0.18-3.302,0.426-6.603,0.529-9.907c0.072-2.343-0.139-4.694-0.061-7.037
	c0.117-3.496,0.48-6.985,0.549-10.481c0.1-4.969-0.051-9.943,0.051-14.911c0.098-4.769,0.361-9.534,0.584-14.298
	c0.154-3.334,0.379-6.663,0.541-9.997c0.037-0.782-0.049-1.571-0.076-2.356c-0.578,0.162-1.156,0.326-1.732,0.486
	c-0.053,0.014-0.109,0.005-0.162,0.006c-1.658,0.02-3.318,0.099-4.973,0.047c-6.434-0.197-12.867-0.428-19.301-0.665
	c-5.566-0.204-11.131-0.548-16.699-0.621c-5.984-0.08-11.977,0.01-17.961,0.172c-2.805,0.074-5.638,0.872-8.389,0.613
	c-1.855-0.177-3.698-0.198-5.474-0.03c-5.856,0.552-11.677,1.471-17.528,2.072c-2.822,0.289-5.695,0.049-8.523,0.293
	c-2.882,0.248-5.74,0.679-8.652,0.508c-0.538-0.031-1.581,0.493-1.578,0.751C82.908,68.6,83.661,68.874,84.616,68.808"/>
<path fill="#231F20" d="M79.692,155.896c1.238-0.095,2.48-0.127,3.72-0.184c3.956-0.181,7.922-0.243,11.866-0.568
	c5.513-0.452,11.005-1.153,16.516-1.64c2.482-0.22,5.001-0.037,7.479-0.286c3.956-0.397,7.88-1.128,11.838-1.494
	c9.509-0.881,19.019-1.807,28.548-2.374c6.604-0.391,13.238-0.311,19.861-0.258c5.395,0.045,10.795,0.268,16.182,0.598
	c3.117,0.19,6.33-1.143,9.402,0.758c0.529-2.127,0.395-2.398-1.354-2.731c-0.791-0.15-1.611-0.188-2.42-0.202
	c-6.445-0.118-12.891-0.202-19.334-0.33c-3.598-0.071-7.195-0.307-10.791-0.282c-3.457,0.021-6.91,0.274-10.365,0.44
	c-3.342,0.162-6.697,0.228-10.026,0.542c-4.395,0.414-8.763,1.088-13.155,1.542c-4.783,0.496-9.581,0.886-14.375,1.288
	c-4.455,0.374-8.915,0.686-13.369,1.061c-6.014,0.507-12.019,1.138-18.04,1.545c-4.045,0.273-8.11,0.262-12.167,0.347
	c-0.619,0.014-1.443-0.628-1.493,0.652C78.176,155.353,78.505,155.987,79.692,155.896"/>
<path fill="#231F20" d="M176.381,165.632c1.238-2.91,1.484-5.646,1.686-8.356c0.027-0.387-1.012-1.074-1.654-1.241
	c-1.188-0.308-2.461-0.262-3.674-0.496c-1.207-0.232-2.365-0.736-3.574-0.928c-1.607-0.255-2.035,0.202-2.076,1.888
	c-1.229-0.182-1.666,0.341-1.721,1.612c-0.109,2.484-0.41,4.961-0.611,7.214c4.141,1.55,7.605,1.087,10.727-1.331
	C175.795,164.563,176,164.938,176.381,165.632 M166.414,163.9c0.229-2.372,0.467-4.862,0.707-7.353
	c2.783,0.287,5.57,0.545,8.344,0.91c0.301,0.041,0.766,0.731,0.732,1.082c-0.137,1.49-0.432,2.966-0.645,4.293
	C172.631,164.497,169.627,164.528,166.414,163.9"/>
<path fill="#231F20" d="M109.717,169.307c0.145,0.077,0.92-0.534,0.991-0.906c0.244-1.266,0.304-2.567,0.433-3.855
	c0.042-0.433,0.209-0.906,0.086-1.288c-0.17-0.53-0.559-0.99-0.854-1.48c-0.271,0.444-0.698,0.862-0.782,1.339
	c-0.239,1.37-0.338,2.764-0.482,4.07c-2.795,0.452-5.562,0.898-8.296,1.343c0.091-0.804,0.219-1.807,0.313-2.812
	c0.155-1.653,0.852-2.759,2.647-3.027c1.776-0.267,3.53-0.676,5.75-1.113c-0.668-0.461-1.079-0.986-1.481-0.981
	c-1.932,0.028-3.884,0.056-5.786,0.354c-2.111,0.332-2.576,1.052-2.812,3.201c-0.146,1.329-0.415,2.646-0.556,3.975
	c-0.058,0.545,0.078,1.107,0.129,1.692c0.799-0.093,1.808-0.342,1.868-0.198c0.635,1.538,1.637,0.512,2.465,0.415
	c0.577-0.066,1.135-0.301,1.707-0.431C106.586,169.256,108.075,168.435,109.717,169.307"/>
<path fill="#231F20" d="M192.598,154.61c-2.383-2.299-6.73-1.1-7.383,0.915c-0.924,2.849-1.219,5.897-1.783,8.859
	c0.199,0.097,0.398,0.192,0.598,0.288c2.754-1.317,6.246,0.192,8.684-2.301c0.227,0.496,0.494,1.078,0.859,1.876
	c0.332-0.429,0.541-0.575,0.559-0.741c0.242-2.336,0.465-4.674,0.68-7.011C194.959,154.903,193.309,155.296,192.598,154.61
	 M193.111,161.389c-2.371,0.284-4.771,0.57-7.625,0.911c0.303-2.003,0.451-3.754,0.865-5.438c0.277-1.132,3.572-1.887,5.113-1.322
	c0.486,0.179,0.973,0.359,1.646,0.608V161.389z"/>
<path fill="#231F20" d="M76.602,195.465c0.822-1.763,1.487-3.599,2.22-5.434c2.282,0.394,4.548,0.785,6.88,1.188
	c-0.251,1.101-0.609,1.889-0.567,2.655c0.083,1.465-0.762,1.765-1.894,1.816c-1.699,0.079-3.402,0.178-5.101,0.142
	c-0.97-0.02-1.546,0.378-1.425,1.248c0.043,0.313,0.973,0.751,1.465,0.715c2.171-0.163,4.331-0.479,6.561-0.747
	c0.205,0.272,0.494,0.655,0.905,1.201c0.336-0.372,0.775-0.632,0.84-0.965c0.419-2.152,0.829-4.312,1.079-6.488
	c0.078-0.688-0.178-1.539-1.379-1.082c-0.45,0.172-1.082-0.062-1.613-0.188c-1.574-0.373-3.132-1.04-4.709-1.08
	c-0.942-0.025-2.278,0.668-2.786,1.459c-0.96,1.49-1.5,3.265-2.099,4.961c-0.149,0.423,0.142,1,0.23,1.505
	C75.689,196.076,76.403,195.891,76.602,195.465"/>
<path fill="#231F20" d="M78.178,184.506c2.314-0.532,4.889-1.126,7.519-1.731c0.026,0.076,0.053,0.525,0.292,0.759
	c0.371,0.36,0.884,0.574,1.338,0.851c0.119-0.429,0.317-0.854,0.341-1.288c0.051-0.919,0.01-1.843,0.01-2.764
	c-0.001-1.255,0-2.51,0-3.86c-1.592,0.578-1.547,0.581-1.719,2.885c-0.045,0.603-0.347,1.601-0.719,1.697
	c-2.24,0.58-4.534,0.952-7.171,1.464c0.419-1.86,0.829-3.239,1.018-4.647c0.156-1.158,0.762-1.524,1.807-1.673
	c1.914-0.272,3.813-0.646,5.718-0.978c0.078-0.164,0.156-0.329,0.234-0.494c-0.618-0.262-1.234-0.742-1.852-0.743
	c-1.66-0.001-3.32,0.198-4.979,0.325c-1.155,0.087-1.833,0.709-2.131,1.827c-0.483,1.815-1.038,3.613-1.492,5.438
	c-0.084,0.338,0.081,0.815,0.284,1.13C77.014,183.231,77.478,183.683,78.178,184.506"/>
<path fill="#231F20" d="M170.898,176.481c0.148-1.768,1.479-3.37-0.184-5.351c-1.217-1.449-1.58-2.293-3.68-2.394
	c-0.977,0.253-1.961,0.481-2.928,0.765c-1.15,0.337-1.43,0.912-1.41,2.288c0.033,2.078-0.693,4.173-1.145,6.252
	c-0.107,0.492-0.4,0.943-0.609,1.414c0.541,0.157,1.09,0.478,1.617,0.443c2.082-0.134,4.365-1.021,6.193-0.439
	c3.197,1.017,1.795-1.067,1.953-2.202C170.742,176.995,170.877,176.743,170.898,176.481 M170.078,172.816
	c-0.492,1.677-0.666,3.448-1.02,5.415c-1.852-0.153-3.662-0.303-5.697-0.471c0.104-0.56,0.184-1.104,0.312-1.638
	c0.244-1.026,0.604-2.036,0.762-3.075c0.281-1.816,0.738-2.269,2.629-2.239c0.537,0.009,1.078,0.07,1.609,0.153
	C169.715,171.128,170.51,171.342,170.078,172.816"/>
<path fill="#231F20" d="M103.779,182.589c0.152-1.909,0.288-3.821,0.37-5.734c0.015-0.335-0.152-0.853-0.4-0.993
	c-1.044-0.592-2.106-1.327-3.249-1.534c-1.828-0.332-3.728-0.4-5.589-0.333c-0.574,0.02-1.519,0.78-1.603,1.311
	c-0.296,1.86-0.323,3.765-0.388,5.656c-0.046,1.318,1.049,2.812,2.074,2.795c1.265-0.021,2.528-0.197,3.794-0.298
	c1.518-0.122,3.037-0.234,4.729-0.363C103.538,183.056,103.76,182.829,103.779,182.589 M102.372,179.312
	c-0.094,0.849-0.251,1.689-0.365,2.437c-2.293,0-4.343,0.052-6.386-0.051c-0.349-0.018-0.938-0.697-0.943-1.076
	c-0.016-1.443,0.161-2.89,0.267-4.341c2.367-0.724,5.726-0.521,7.609,0.458C102.495,177.602,102.465,178.461,102.372,179.312"/>
<path fill="#231F20" d="M87.011,163.102c-1.165-0.424-2.364-1.755-3.759-0.391c-2.031-1.269-2.088,0.894-2.844,1.709
	c-0.605,0.655-1.051,1.499-1.413,2.327c-0.42,0.967-0.671,2.009-1.143,3.473c4.116-0.492,7.657-0.914,11.27-1.345
	C89.913,167.152,88.836,163.767,87.011,163.102 M80.719,167.835c0.917-1.668,1.628-2.963,2.344-4.267
	c1.695,0.727,3.985,0.569,3.942,3.353C84.968,167.219,82.977,167.507,80.719,167.835"/>
<path fill="#231F20" d="M110.896,176.276c0.077-0.284,0.445-0.645,0.731-0.696c1.312-0.242,2.639-0.458,3.97-0.538
	c0.672-0.039,1.361,0.229,2.132,0.377c-0.197-1.786-0.373-2.066-1.916-2.079c-1.779-0.017-3.572,0.1-5.331,0.354
	c-0.499,0.074-1.166,0.763-1.296,1.283c-0.389,1.555-0.536,3.17-0.806,4.756c-0.177,1.032-0.405,2.055-0.708,3.564
	c1.699-0.299,2.946-0.551,4.202-0.73c1.571-0.227,3.158-0.354,4.722-0.615c0.395-0.064,0.729-0.477,1.091-0.729
	c-0.303-0.244-0.606-0.698-0.907-0.696c-1.964,0.019-3.927,0.137-5.891,0.218c-0.307,0.014-0.614,0.002-1.079,0.002
	c0.269-0.82,0.549-1.513,0.716-2.232C110.699,177.779,110.701,177.003,110.896,176.276"/>
<path fill="#231F20" d="M146.92,172.954c0.414-0.809,4.228-1.584,5.04-1.126c0.211,0.118,0.444,0.197,0.668,0.296
	c0.104-0.287,0.368-0.638,0.282-0.846c-0.176-0.427-0.478-0.852-0.834-1.15c-1.379-1.15-6.935,0.312-7.154,2.775
	c-0.159,1.787-0.662,3.543-0.969,5.32c-0.247,1.433,0.92,2.44,2.32,2.052c1.998-0.553,3.996-1.103,5.994-1.654
	c-0.361-1.369-0.361-1.369-6.441-0.514c0.229-1.183,0.424-2.241,0.64-3.296C146.592,174.185,146.639,173.508,146.92,172.954"/>
<path fill="#231F20" d="M185.949,168.175c-1.893,0.197-3.789,0.69-5.568,1.36c-0.467,0.176-0.512,1.468-0.754,2.246
	c-0.064,0.207-0.135,0.412-0.199,0.618c-0.414,1.273-0.869,2.533-1.227,3.821c-0.475,1.712,0.037,2.487,1.787,2.243
	c1.703-0.236,3.367-0.846,4.992-1.446c0.457-0.169,0.717-0.882,1.066-1.346c-1.271,0.032-2.24,0.377-3.238,0.522
	c-2.855,0.418-2.859,0.387-1.809-2.335c0.076-0.197,0.031-0.439,0.107-0.637c1.018-2.663,3.775-3.937,6.084-2.821l0.111-0.119
	C187.447,169.182,187.166,168.049,185.949,168.175"/>
<path fill="#231F20" d="M141.912,164.351h-7.684c0.363-1.563,0.773-3.195,1.115-4.842c0.192-0.926,0.561-1.358,1.627-1.331
	c1.145,0.028,2.297-0.276,3.881-0.497c-0.402-0.584-0.66-1.303-0.943-1.312c-1.697-0.056-3.406-0.008-5.097,0.154
	c-0.331,0.031-0.733,0.676-0.865,1.109c-0.192,0.639-0.136,1.351-0.251,2.021c-0.307,1.789-0.757,3.562-0.945,5.361
	c-0.167,1.602,0.355,1.892,1.895,1.585c1.353-0.271,2.762-0.275,4.096-0.602C139.801,165.739,141.258,166.132,141.912,164.351"/>
<path fill="#231F20" d="M135.878,179.9c0.191,0.433,0.605,0.766,0.925,1.141c0.291-0.394,0.75-0.751,0.84-1.187
	c0.321-1.527,0.562-3.075,0.737-4.626c0.1-0.88,0.079-1.79-0.028-2.667c-0.039-0.309-0.502-0.563-0.771-0.844
	c-0.289,0.356-0.768,0.684-0.83,1.076c-0.214,1.346-0.245,2.72-0.429,4.071c-0.046,0.345-0.335,0.839-0.624,0.937
	c-2.5,0.851-5.025,1.626-7.542,2.424c-0.074-0.131-0.148-0.26-0.222-0.389c-0.129,0.548-0.257,1.098-0.419,1.79
	c3.457,0.593,5.891-1.14,8.525-3.056C135.949,179.189,135.752,179.616,135.878,179.9"/>
<path fill="#231F20" d="M147.948,167.417c0.2-0.019,0.491-0.272,0.542-0.474c0.447-1.771,0.892-3.546,1.258-5.336
	c0.627-3.067,0.83-3.411,3.876-3.589c1.206-0.067,2.448,0.518,3.878,0.852c0.342-0.857-0.146-1.363-0.982-1.904
	c-2.566-1.664-5.074-0.493-7.584,0.062c-0.244,0.053-0.5,0.688-0.505,1.058c-0.05,2.634-0.149,5.244-1.251,7.716
	c-0.142,0.317,0.061,0.829,0.203,1.214C147.453,167.204,147.767,167.434,147.948,167.417"/>
<path fill="#231F20" d="M123.462,165.303c0.406,0.879,0.764,1.658,1.173,2.542c0.624-0.523,1.009-0.848,1.176-0.988
	c0-1.236-0.049-2.229,0.013-3.215c0.073-1.182,0.312-2.357,0.323-3.538c0.004-0.376-0.481-0.758-0.743-1.137
	c-0.276,0.328-0.719,0.619-0.797,0.989c-0.31,1.472-0.506,2.968-0.695,4.157c-0.801,0.194-1.387,0.324-1.965,0.479
	c-1.428,0.378-2.751,1.261-4.377,0.624c-0.339-0.132-0.966,0.47-1.461,0.733c0.361,0.454,0.711,1.282,1.086,1.294
	c1.151,0.036,2.361-0.091,3.457-0.438C121.675,166.479,122.584,165.788,123.462,165.303"/>
<path fill="#231F20" d="M126.457,181.442c0.347-0.978,0.737-1.942,1.027-2.937c0.391-1.336,0.298-3.437,1.131-3.89
	c1.758-0.954,3.979-1.068,6.018-1.496c0.424-0.09,0.877-0.045,1.317-0.061c-0.323-0.47-0.565-1.252-0.979-1.357
	c-2.406-0.61-4.704,0.133-7.015,0.754c-1.091,0.295-1.357,0.899-1.456,1.953c-0.16,1.702-0.596,3.376-0.856,5.071
	c-0.093,0.612-0.015,1.25-0.015,1.876C125.905,181.386,126.181,181.414,126.457,181.442"/>
<path fill="#231F20" d="M115.6,165.588c0.226-0.647,0.231-1.371,0.335-2.062c0.458-3.04,0.482-3.049,3.656-2.999
	c1.525,0.022,3.053,0.004,4.579,0.004c0.056-0.241,0.111-0.482,0.167-0.724c-0.353-0.279-0.685-0.77-1.06-0.804
	c-2.2-0.195-4.412-0.382-6.616-0.344c-0.6,0.009-1.546,0.695-1.711,1.256c-0.528,1.786-0.806,3.654-1.069,5.507
	c-0.041,0.286,0.47,0.872,0.788,0.921C114.947,166.387,115.481,165.93,115.6,165.588"/>
<path fill="#231F20" d="M185.104,211.487c-1.488,0.056-2.988,0.307-4.436,0.663c-0.385,0.094-0.598,0.884-0.889,1.354
	c0.492,0.128,0.996,0.396,1.473,0.354c1.197-0.105,2.381-0.35,3.932-0.596c-0.328,2.422-0.602,4.435-0.875,6.447l0.562,0.302
	c0.527-0.402,1.426-0.734,1.516-1.218c0.334-1.763,0.408-3.572,0.557-5.367C187.051,212.114,186.256,211.444,185.104,211.487"/>
<path fill="#231F20" d="M93.815,196.47c-0.086,0.229,0.63,0.758,0.975,1.148c0.313-0.348,0.728-0.648,0.913-1.054
	c0.204-0.45,0.182-1,0.288-1.5c0.4-1.869,0.813-3.733,1.241-5.688c0.897-0.051,2.01-0.114,3.123-0.177l0.138-0.772
	c-1.017-0.469-2.021-1.276-3.053-1.313c-1.027-0.035-1.827,0.852-1.335,2.163c0.011,0.03-0.046,0.093-0.08,0.133
	C94.318,191.449,94.677,194.152,93.815,196.47"/>
<path fill="#231F20" d="M158.867,164.878c-1.66,0.123-2.838,0.305-4.012,0.273c-1.438-0.037-2.871-0.356-4.303-0.334
	c-0.491,0.008-0.973,0.677-1.457,1.043c0.5,0.292,0.971,0.736,1.507,0.84c0.841,0.163,1.763-0.052,2.583,0.157
	c1.758,0.448,3.293-0.017,4.766-0.878C158.256,165.8,158.436,165.411,158.867,164.878"/>
<path fill="#231F20" d="M179.457,213.357c-0.65,0.049-1.58-0.017-1.621,0.145c-0.361,1.412-1.1,3.042-0.697,4.269
	c0.771,2.355,3.047,1.461,4.934,1.506c-0.027-0.578-0.047-1.036-0.068-1.473C178.469,217.629,178.947,216.996,179.457,213.357"/>
<path fill="#231F20" d="M187.127,172.479c-0.217,1.59-0.564,3.163-0.729,4.757c-0.049,0.474,0.326,0.995,0.508,1.495
	c0.223-0.023,0.447-0.047,0.672-0.071c0.518-2.478,1.15-4.94,1.512-7.442c0.193-1.341-0.738-1.476-1.787-0.936l-0.111,0.119
	C187.174,171.095,187.221,171.796,187.127,172.479"/>
<path fill="#231F20" d="M145.306,157.476c0.021-0.276-0.513-0.596-0.892-1.004c-1.785,3.121-1.814,7.716,0.054,9.78
	C144.777,163.157,145.087,160.32,145.306,157.476"/>
<path fill="#231F20" d="M154.449,171.883c-0.309,1.796-0.383,3.64-0.432,5.467c-0.01,0.357,0.547,0.73,0.842,1.098
	c0.266-0.404,0.697-0.78,0.766-1.212c0.301-1.907,0.496-3.828,0.758-5.979C155.447,170.216,154.658,170.669,154.449,171.883"/>
<path fill="#231F20" d="M118.731,174.591c-0.239,1.373-0.475,2.755-0.56,4.142c-0.059,0.956,0.132,1.928,0.24,3.256
	c0.784-0.525,1.468-0.757,1.489-1.036c0.159-2.184,0.215-4.375,0.225-6.564c0.001-0.211-0.524-0.423-0.806-0.635
	C119.116,174.031,118.783,174.286,118.731,174.591"/>
<path fill="#231F20" d="M159.52,158.247c-0.211,0.709-0.168,1.49-0.246,2.241c-0.125,1.227-0.334,2.451-0.35,3.68
	c-0.006,0.404,0.471,0.817,0.727,1.226c0.266-0.393,0.66-0.754,0.768-1.187c0.223-0.905,0.311-1.847,0.42-2.777
	c0.164-1.419,0.301-2.843,0.449-4.263c-0.27-0.121-0.533-0.242-0.801-0.363C160.152,157.282,159.678,157.717,159.52,158.247"/>
<path fill="#231F20" d="M130.338,100.285l0.172,0.045l-0.897,0.322c-0.203,0.07-0.386,0.152-0.569,0.23
	c-0.391,0.172-0.77,0.33-1.163,0.352l-0.049,0.004c-0.466,0.006-0.911-0.291-1.308-0.555l-0.089-0.062
	c-0.521-0.348-1.031-0.708-1.541-1.068c-0.473-0.339-0.944-0.671-1.428-0.996c-0.704-0.471-1.418-0.93-2.14-1.389l-0.508-0.324
	l-0.044,1.348l-0.802,0.619l0.028,0.531l-0.518,0.287l-0.354-0.292c-0.188,0.233-0.428,0.062-0.663,0.087l-0.084,0.01
	c-0.108,0.013-0.227,0.049-0.346,0.092c-0.137,0.043-0.274,0.088-0.412,0.113c-0.18,0.027-0.355,0.018-0.508,0.009
	c-0.061-0.003-0.122-0.006-0.176-0.003l-0.151-0.004l-0.085-0.123c-0.744-0.99-0.773-2.104-0.8-3.174
	c-0.005-0.229-0.012-0.46-0.031-0.689c-0.143-2.457-0.271-4.959-0.387-7.376l-0.14-2.853l-0.005-0.084
	c0.005-0.139,0.005-0.249,0.011-0.357c0.013-0.322,0.027-0.627-0.073-0.936c-0.147-0.465-0.161-0.961-0.174-1.433
	c-0.008-0.151-0.01-0.303-0.019-0.453c-0.077-1.244-0.134-2.41-0.171-3.547l0.097-0.006c-0.045-0.372-0.078-0.753-0.092-1.134
	c-0.023-0.664,0.312-1.215,0.59-1.563l0.329-0.399L116,75.93l0.101-0.14l0.061-1.021l0.651,0.287
	c0.174,0.074,0.335,0.146,0.484,0.222c0.736,0.379,1.222,0.984,1.589,1.963c0.162,0.422,0.178,0.833,0.199,1.226
	c0.006,0.218,0.017,0.429,0.052,0.64c0.057,0.366,0.119,0.732,0.18,1.094c0.149,0.852,0.299,1.733,0.406,2.613
	c0.144,1.215,0.252,2.451,0.353,3.651l0.114,1.327c0.01,0.182,0.025,0.362,0.047,0.537c0.248-0.359,0.5-0.725,0.728-1.1
	c0.598-0.953,1.475-1.551,2.173-1.965c0.305-0.186,0.706-0.061,1.082,0.052c0.109,0.038,0.215,0.067,0.319,0.093
	c0.159,0.033,0.302,0.104,0.438,0.17c0.056,0.027,0.106,0.055,0.163,0.076l0.142,0.064l0.143,0.635l0.355-0.14l0.091,0.329
	c0.113,0.424,0.048,0.784-0.092,1.1l0.12-0.012l-0.086,0.398c0,0.025-0.004,0.049-0.009,0.073c-0.006,0.098-0.024,0.226-0.103,0.339
	c-0.147,0.215-0.3,0.416-0.452,0.623c-0.147,0.202-0.299,0.41-0.439,0.617c-0.552,0.793-1.096,1.592-1.636,2.391l-0.235,0.346
	l1.536,0.96c1.654,1.032,3.371,2.104,5.028,3.185c0.447,0.291,0.763,0.758,1.045,1.18l0.06,0.088
	c0.124,0.181,0.131,0.405,0.032,0.604c-0.099,0.188-0.272,0.342-0.492,0.438l0.677,1.206l-0.566-0.043l0.183,0.232L130.338,100.285z
	"/>
<path fill="#231F20" d="M109.876,99.755c-0.021,0.062-0.048,0.118-0.076,0.181c0.035-0.033,0.076-0.06,0.111-0.086
	C109.897,99.814,109.89,99.785,109.876,99.755"/>
<path fill="#231F20" d="M109.876,99.755c-0.021,0.062-0.048,0.118-0.076,0.181c0.035-0.033,0.076-0.06,0.111-0.086
	C109.897,99.814,109.89,99.785,109.876,99.755"/>
<path fill="#231F20" d="M110.349,99.869c0.333-0.575,0.654-1.138,0.938-1.716c0.699-1.419,1.453-3.312,1.109-5.444l-0.03-0.206
	c-0.118-0.726-0.237-1.483-0.615-2.099c-0.803-1.303-1.962-2.477-3.445-3.487c-0.516-0.349-1.026-0.605-1.519-0.754
	c-0.364-0.114-0.729-0.162-1.09-0.21c-0.25-0.035-0.506-0.069-0.757-0.129c-1.276-0.295-2.37,0.229-3.294,0.739
	c-1.035,0.577-1.928,1.339-2.647,2.268c-0.776,1.013-1.701,2.394-1.936,4.139c-0.071,0.495-0.08,0.991-0.091,1.478
	c-0.006,0.212-0.007,0.43-0.02,0.643l-0.062,1.451l0.158-0.002c0.026,0.386,0.107,0.764,0.199,1.109
	c0.016,0.084,0.05,0.137,0.058,0.179c-0.008,0.073-0.013,0.214,0.061,0.336c0.193,0.323,0.35,0.653,0.52,1.003
	c0.115,0.23,0.231,0.467,0.353,0.695l-0.95-0.984l0.991,1.879c0.135,0.26,0.284,0.543,0.537,0.735
	c0.126,0.097,0.247,0.192,0.367,0.288c0.533,0.439,1.089,0.888,1.923,0.953c0.432,0.031,0.884,0.109,1.318,0.178
	c0.617,0.105,1.26,0.217,1.907,0.207c0.085,0.001,0.17-0.004,0.255-0.008c1.346-0.072,2.622-0.577,3.805-1.125
	c0.124-0.055,0.234-0.14,0.339-0.224l-0.048,0.124l0.251-0.305c0.052-0.044,0.104-0.096,0.162-0.141l2.194-1.777l-1.291,0.65
	c0.017-0.02,0.034-0.039,0.051-0.059C110.157,100.14,110.266,100.02,110.349,99.869 M105.673,98.077
	c-0.271,0.251-0.72,0.36-1.192,0.477c-0.216,0.047-0.437,0.102-0.639,0.173c-1.304-0.033-2.84-0.885-3.088-2.131
	c-0.25-1.277-0.45-2.751,0.369-4.092c0.585-0.964,1.404-1.734,2.434-2.285c0.088-0.048,0.184-0.071,0.287-0.077
	c0.206-0.01,0.44,0.067,0.709,0.229c0.131,0.085,0.306,0.178,0.501,0.204c1.227,0.177,2.571,1.201,2.644,2.773
	C107.791,95.184,107.122,96.734,105.673,98.077 M109.801,99.936c0.027-0.062,0.053-0.118,0.075-0.181
	c0.013,0.03,0.021,0.06,0.036,0.095C109.876,99.876,109.835,99.902,109.801,99.936"/>
<path fill="#231F20" d="M136.751,125.52c-0.005,0.007-0.018,0.008-0.022,0.015l0.035-0.003L136.751,125.52z"/>
<path fill="#231F20" d="M134.249,114.404c0.005,0,0.013,0.005,0.019,0.005s0.006,0,0.012-0.007L134.249,114.404z M134.249,114.404
	c0.005,0,0.013,0.005,0.019,0.005s0.006,0,0.012-0.007L134.249,114.404z M136.751,125.521c-0.007,0.007-0.018,0.007-0.022,0.013
	l0.035-0.002c0.006-0.006,0.018-0.02,0.023-0.024C136.775,125.514,136.762,125.514,136.751,125.521 M134.249,114.404
	c0.005,0,0.013,0.005,0.019,0.005s0.006,0,0.012-0.007L134.249,114.404z"/>
<path fill="#231F20" d="M141.292,119.232c0.004-0.031,0.062-0.106,0.095-0.157c0.084-0.126,0.196-0.283,0.191-0.489
	c0-0.115-0.018-0.223-0.036-0.342l-0.079-0.561l-0.301,0.156c0.047-0.735,0.03-1.486-0.353-2.188
	c0.094-0.174,0.121-0.351,0.081-0.52c-0.039-0.179-0.156-0.318-0.324-0.4c-0.049-0.021-0.1-0.061-0.126-0.102
	c-0.039-0.059-0.119-0.175-0.127-0.218c0.005-0.146-0.068-0.269-0.122-0.357v-0.005l0.377-0.172l-0.306-0.311
	c-0.083-0.08-0.167-0.161-0.256-0.24c-0.177-0.155-0.337-0.298-0.43-0.457c-0.796-1.411-2.012-2.158-3.614-2.217
	c-0.098-0.008-0.189-0.027-0.281-0.04c-0.135-0.029-0.274-0.052-0.408-0.051c-0.182-0.003-0.369-0.011-0.552-0.013
	c-0.528-0.02-1.068-0.041-1.597,0.049c-1.254,0.219-2.289,0.951-3.236,1.687c-1.024,0.795-1.846,1.85-2.443,3.136
	c-0.311,0.658-0.687,1.539-0.845,2.456c-0.125,0.71-0.098,1.447-0.067,2.155l0.016,0.502c0.028,0.846,0.049,1.717,0.617,2.48
	c0.105,0.146,0.227,0.285,0.344,0.424c0.213,0.248,0.413,0.486,0.53,0.74c0.453,0.982,1.239,1.504,1.937,1.878l0.71,0.387
	l-0.184-0.494c0.276,0.041,0.55,0.087,0.819,0.127c0.838,0.131,1.698,0.267,2.562,0.329c0.292,0.021,0.577,0.024,0.85,0.01
	c0.736-0.04,1.388-0.214,1.971-0.523c0.042-0.021,0.082-0.047,0.117-0.066l0.688-0.037l-0.203-0.177
	c0.4-0.21,0.705-0.517,0.915-0.916l0.099-0.192c0.457-0.182,0.812-0.656,1.124-1.078c0.067-0.088,0.142-0.184,0.209-0.271
	c0.347-0.442,0.677-0.957,1.022-1.611c0.211-0.387,0.38-0.838,0.543-1.41c0.01-0.037,0.014-0.08,0.012-0.116
	c0.088-0.06,0.154-0.172,0.207-0.327c0.061-0.208-0.012-0.324-0.082-0.389C141.306,119.256,141.292,119.232,141.292,119.232
	 M134.279,114.402c-0.006,0.007-0.006,0.007-0.012,0.007c-0.007,0-0.013-0.005-0.018-0.005L134.279,114.402z M136.764,125.531
	l-0.036,0.002c0.005-0.006,0.018-0.006,0.022-0.014c0.013-0.006,0.025-0.006,0.037-0.013
	C136.781,125.514,136.77,125.525,136.764,125.531 M135.778,121.041c-0.152,0.189-0.422,0.368-0.778,0.514
	c-0.854,0.343-1.742,0.385-2.641,0.123c-0.492-0.143-0.85-0.487-0.983-0.947c-0.369-1.234-0.259-2.464,0.338-3.749
	c0.342-0.733,0.645-1.319,1.244-1.66c0.3-0.175,0.621-0.3,0.958-0.438c0.119-0.05,0.237-0.098,0.344-0.14
	c0.062,0.027,0.118,0.054,0.18,0.081c0.255,0.119,0.517,0.245,0.81,0.289c0.525,0.082,1.203,0.402,1.371,1.055
	C137.123,118.092,136.852,119.682,135.778,121.041"/>
<path fill="#231F20" d="M158.395,119.367l-0.021-0.405c0.021-0.038,0.051-0.076,0.078-0.119c0.158-0.228,0.332-0.484,0.256-0.766
	c-0.184-0.62-0.348-1.211-0.182-1.839l-0.186-0.062c-0.01-0.071-0.025-0.137-0.041-0.203c-0.057-0.264-0.105-0.509-0.191-0.754
	c-0.072-0.195-0.131-0.398-0.197-0.594c-0.213-0.717-0.439-1.455-1.086-2.075c-0.926-0.896-2.023-1.376-3.162-1.83
	c-0.092-0.038-0.178-0.045-0.246-0.054c-0.023,0.002-0.055-0.004-0.078-0.008l-0.166-0.039c-0.166-0.04-0.324-0.074-0.48-0.133
	c-0.109-0.035-0.216-0.098-0.328-0.151c-0.256-0.138-0.543-0.286-0.85-0.251c-0.759,0.083-1.378,0.279-1.842,0.576
	c-1.252,0.807-2.273,1.872-3.033,3.166c-0.923,1.564-1.45,3.283-1.57,5.106c-0.061,0.901,0.127,1.823,0.321,2.612
	c0.056,0.228,0.127,0.453,0.206,0.674l-0.076-0.062l0.131,0.199c0.17,0.451,0.381,0.888,0.592,1.313
	c0.162,0.33,0.391,0.627,0.605,0.912c0.092,0.122,0.189,0.245,0.275,0.366l0.17,0.247l0.444-0.31
	c0.076,0.076,0.157,0.144,0.24,0.211c0.204,0.166,0.46,0.213,0.693,0.254c0.11,0.019,0.226,0.036,0.33,0.08
	c0.032,0.01,0.069,0.038,0.107,0.079c-0.016,0.049-0.024,0.116-0.009,0.183c0.043,0.215,0.238,0.277,0.338,0.309
	c0.019,0.004,0.043,0.01,0.062,0.021c0.497,0.246,0.971,0.354,1.459,0.329c0.187-0.011,0.373-0.039,0.565-0.085
	c1.177-0.306,2.149-0.576,3.099-1.068c0.172-0.089,0.35-0.165,0.525-0.247c0.568-0.242,1.156-0.504,1.566-1.095l1-1.446
	c0.078-0.113,0.133-0.335-0.018-0.479c0.074-0.047,0.15-0.1,0.207-0.187l0.045-0.063l0.002-0.078
	c0.039-0.396,0.232-0.758,0.436-1.139c0.121-0.219,0.244-0.442,0.34-0.685l0.18-0.464L158.395,119.367z M153.506,120.725
	c-0.447,0.703-1.021,1.054-1.99,1.208c-0.359,0.062-0.65-0.068-0.911-0.394c-0.642-0.801-0.978-1.645-0.972-2.443
	c0.003-0.854,0.262-1.789,0.74-2.693c0.363-0.68,0.762-1.373,1.377-1.775l0.087,0.043c0.132,0.078,0.232,0.14,0.339,0.207
	c0.082,0.05,0.164,0.111,0.24,0.175c0.215,0.17,0.454,0.356,0.746,0.384c0.195,0.014,0.314,0.115,0.494,0.282
	c0.135,0.127,0.287,0.27,0.527,0.348C154.404,117.587,154.479,119.206,153.506,120.725"/>
<path fill="#231F20" d="M121.386,125.724c-0.011,0.007-0.023,0.019-0.034,0.032c0.053,0.088,0.077,0.189,0.07,0.292
	c-0.021,0.286-0.25,0.535-0.669,0.739l0.123,0.369l-0.261,0.104c-0.172,0.069-0.337,0.157-0.508,0.245
	c-0.395,0.202-0.802,0.412-1.236,0.436c-0.024,0.001-0.043,0.002-0.067-0.002c-1.247,0.018-2.709-0.013-4.125-0.312
	c-1.439-0.306-2.636-1.041-3.55-2.174c-0.883-1.098-1.584-2.205-2.15-3.393c-0.137-0.29-0.202-0.602-0.272-0.9
	c-0.017-0.096-0.041-0.191-0.064-0.287c-0.271-1.125-0.5-2.457-0.116-3.744c0.309-1.027,0.679-1.818,1.125-2.424
	c0.797-1.071,1.751-2.031,2.591-2.875c1.001-1.005,2.139-1.478,3.468-1.439c0.849,0.021,1.705,0.049,2.424,0.693
	c0.35,0.315,0.683,0.655,1.009,0.982l0.103,0.109c0.115,0.115,0.118,0.267,0.123,0.352c0.065,0.669-0.47,1.539-0.952,1.808
	c-0.594,0.329-1.229,0.46-2.001,0.411c-0.869-0.051-1.45,0.524-2.072,1.133l-0.23,0.219c-1.044,1-1.294,2.221-0.758,3.729
	l0.049,0.131c0.235,0.653,0.471,1.331,0.869,1.851c0.756,1.008,1.883,1.455,3.441,1.372c0.211-0.011,0.433-0.07,0.665-0.138
	c0.167-0.052,0.335-0.097,0.509-0.131c0.426-0.077,0.853-0.148,1.279-0.214l0.848-0.129l0.104,1.06l0.623-0.13l0.042,0.325
	c0.011,0.096,0.035,0.192,0.052,0.294c0.057,0.27,0.116,0.581,0.035,0.876C121.787,125.29,121.581,125.507,121.386,125.724"/>
<path fill="#231F20" d="M171.854,124.011l0.779,0.521l-1.176,0.246c-0.023,0.019-0.053,0.051-0.08,0.076
	c-0.104,0.109-0.234,0.243-0.428,0.26c-0.182,0.021-0.367,0.049-0.555,0.078c-0.264,0.038-0.529,0.082-0.793,0.096
	c-0.297,0.016-0.582-0.005-0.859-0.092c-0.963-0.307-1.611-1.145-1.703-2.182c-0.105-1.157-0.211-2.315-0.264-3.463
	c-0.047-0.968-0.074-1.936-0.102-2.903c-0.012-0.454-0.025-0.901-0.037-1.354l-0.209-6.441c-0.029-0.864-0.051-1.729-0.098-2.594
	c-0.02-0.387-0.061-0.772-0.098-1.158c-0.045-0.385-0.084-0.771-0.104-1.157l-0.004-0.06c-0.027-0.521-0.057-1.051,0.068-1.555
	c0.105-0.418,0.469-0.867,1.02-0.854l0.008-0.001c0.502-0.325,1.156-0.589,1.828-0.11c0.227,0.157,0.379,0.373,0.516,0.59
	c0.066,0.094,0.133,0.188,0.197,0.269c0.098,0.122,0.201,0.231,0.297,0.348c0.131,0.151,0.266,0.295,0.381,0.452
	c0.111,0.134,0.127,0.303,0.139,0.424c0.029,0.325,0.059,0.633,0.08,0.94c0.047,0.519,0.092,1.036,0.145,1.55
	c0.033,0.312,0.074,0.619,0.115,0.926c0.061,0.457,0.129,0.933,0.16,1.402c0.021,0.272-0.008,0.535-0.037,0.79
	c-0.016,0.171-0.035,0.341-0.037,0.511c0,0.127,0.025,0.259,0.051,0.404c0.018,0.113,0.043,0.233,0.049,0.349l0.025,0.222
	c0.045,0.531,0.092,1.074,0.109,1.617c0.01,0.17-0.049,0.324-0.104,0.461l0.037,0.113l0.02,2.076l-0.096-0.007
	c0.221,0.643,0.312,1.916,0.271,2.839l0.133-0.127l0.09,1.69l-0.211,0.035c-0.002,0.067-0.004,0.134-0.012,0.201
	c-0.018,0.146-0.07,0.282-0.113,0.399c-0.031,0.08-0.064,0.161-0.078,0.24c-0.004,0.037-0.02,0.074-0.031,0.105
	c0.273,0.215,0.375,0.513,0.48,0.798c0.02,0.065,0.043,0.137,0.07,0.202l1.312,0.287l-0.285,0.428l0.496,0.143l-0.504,0.421
	l0.633,0.275l-0.541,0.181l0.734,0.118l-1.641,0.838L171.854,124.011z"/>
<path fill="#231F20" d="M182.057,121.533l-0.457,0.552l-0.234,0.478l-0.088-0.043c-0.01,0.013-0.016,0.019-0.021,0.025
	c-0.162,0.16-0.322,0.326-0.516,0.47c-0.15,0.111-0.33,0.163-0.486,0.201l-0.125,0.037c-0.143,0.051-0.287,0.07-0.42,0.077
	c-0.453,0.023-0.867-0.135-1.244-0.279c-0.223-0.084-0.332-0.332-0.391-0.512c-0.035-0.119-0.066-0.232-0.092-0.359
	c-0.113,0.02-0.211,0.012-0.279-0.015c-0.229-0.066-0.396-0.264-0.484-0.567c-0.209-0.734-0.121-1.352,0.258-1.844l0.121-0.151
	c0.248-0.335,0.535-0.714,1.098-0.87c0.99-0.284,1.889-0.029,2.455,0.697c0.055,0.01,0.191,0.075,0.273,0.265
	c0.051,0.04,0.084,0.093,0.105,0.151c0.014,0.006,0.023,0.006,0.037,0.011l0.109,0.013l0.078,0.088
	c0.115,0.132,0.166,0.299,0.146,0.463c-0.004,0.061-0.023,0.123-0.047,0.173L182.057,121.533z"/>
<path fill="#231F20" d="M136.787,125.506c-0.006,0.007-0.018,0.02-0.023,0.025l-0.013-0.012
	C136.763,125.514,136.774,125.513,136.787,125.506"/>
<path fill="#231F20" d="M136.787,125.506c-0.006,0.007-0.018,0.02-0.023,0.025l-0.037,0.003c0.008-0.007,0.019-0.008,0.024-0.015
	C136.763,125.514,136.774,125.513,136.787,125.506"/>
<path fill="#231F20" d="M136.9,125.821l-0.127,0.135l-0.069-0.063c0.042-0.021,0.082-0.047,0.117-0.067L136.9,125.821z"/>
<rect x="17.938" y="5.681" fill="none" width="289.464" height="289.464"/>
</svg>
