<?xml version="1.0" encoding="utf-8"?>
<!-- Generator: Adobe Illustrator 16.0.0, SVG Export Plug-In . SVG Version: 6.00 Build 0)  -->
<!DOCTYPE svg PUBLIC "-//W3C//DTD SVG 1.1//EN" "http://www.w3.org/Graphics/SVG/1.1/DTD/svg11.dtd">
<svg version="1.1" id="Layer_1" xmlns="http://www.w3.org/2000/svg" xmlns:xlink="http://www.w3.org/1999/xlink" x="0px" y="0px"
	 width="288px" height="288px" viewBox="0 0 288 288" enable-background="new 0 0 288 288" xml:space="preserve">
<path fill-rule="evenodd" clip-rule="evenodd" d="M190.559,86.797c3.544,3.732,6.961,7.854,6.514,13.58
	c-0.045,0.635,0.003,1.271,0.076,1.927l0.058,0.723c0.045,0.567,0.438,1.067,0.99,1.229c0.557,0.173,1.16-0.059,1.489-0.512
	c2.935-4.117,5.954-8.367,5.043-14.038c-0.066-0.466,0.062-1.062,0.188-1.712c0.093-0.407,0.167-0.831,0.221-1.224l0.061-0.587
	c0.221-1.967,0.409-2.798,1.486-3.077c1.662-0.463,2.659,1.176,3.483,2.785c0.786,1.58,1.083,3.797,0.745,5.551
	c-1.151,5.877-2.548,11.824-3.899,17.575l-1.374,5.904c-0.108,0.463-0.288,0.907-0.479,1.328c-1.648,3.64-2.969,3.64-3.4,3.64
	c-1.016,0-2.368-0.766-3.994-2.313c-1.323-1.237-2.608-2.896-3.822-4.935c-0.646-1.065-1.138-2.317-1.835-4.004
	c-0.367-0.937-0.799-2.009-1.342-3.255c-0.217-0.52-0.703-0.843-1.256-0.843c-0.028,0-0.061,0-0.093,0
	c-0.575,0.045-1.067,0.449-1.23,1.007c-0.405,1.464-0.748,2.779-1.064,3.985c-0.687,2.604-1.233,4.679-2.003,6.63
	c-0.457,1.188-1.534,2.472-1.78,2.607c-1.228-0.05-2.959-0.979-3.908-2.124c-1.524-1.812-1.745-4.121-0.723-7.48
	c1.308-4.302,2.554-8.626,3.81-12.916c0.751-2.654,1.527-5.287,2.291-7.932C185.794,85.036,188.271,84.389,190.559,86.797z
	 M95.245,112.887c0.068-0.251,0.256-0.6,0.433-0.957c0.461-0.859,0.975-1.863,0.711-3.028c-0.353-1.585-1.61-3.293-3.053-4.151
	c-0.162-0.096-0.355-0.227-0.587-0.374c-1.077-0.717-2.026-1.292-2.64-1.292c-1.655,0-3.015,0.947-3.679,2.565
	c-0.493,1.26-0.963,2.589-1.361,3.744c-0.487,1.439-1.003,2.897-1.601,4.308c-1.122,2.613-1.766,3.297-3.591,2.012
	c-3.047-2.131-3.585-4.05-2.216-7.834c1.69-4.662,3.396-9.406,5.185-14.519c0.374-1.05,0.791-2.301,1.012-3.602
	c0.158-0.945,0.205-1.989,0.243-3.027c0.025-0.63,0.098-2.473,0.201-2.931c1.97-1.007,4.393-1.369,6.952-1.772
	c0.931-0.136,1.977-0.289,3.001-0.49c5.81,1.567,10.342,3.432,13.614,7.384c2.411,2.903,2.135,9.034-0.505,11.267
	c-3.088,2.627-4.025,5.443-4.561,9.117c-0.284,1.999-1.09,4.065-1.974,6.178c-0.693,1.666-1.339,2.373-2.16,2.373
	c-0.259,0-0.54-0.055-0.849-0.192C95.431,116.631,94.628,115.167,95.245,112.887z M101.085,94.629l0.983-3.323
	c-0.502-0.423-0.526-1.104-0.905-1.451c-0.822-0.792-1.607-1.538-2.701-1.538l0,0l-0.114,0.005
	c-3.464,0.169-5.127,0.804-5.765,2.161c-0.842,1.878-0.904,3.917-0.957,5.904l-0.04,1.2l0.046,0.748
	c0.005,0.056,0.024,0.126,0.079,0.168l0.405,0.435c0.481,0.519,1.748,1.251,2.662,1.251l0.605-0.017
	c0.064,0,0.117-0.026,0.171-0.065l0.395-0.35C97.712,98.204,101.14,94.668,101.085,94.629z M241.879,92.951
	c-0.405-4.084-2.601-6.738-6.43-8.271c-10.846-4.327-10.217-5.297-14.847,5.864c-2.896,7.004-4.535,14.536-6.443,21.904
	c-0.428,1.646-0.105,3.914,0.78,5.341c0.818,1.31,3.298,2.993,4.285,2.599c3.998-1.604,7.855-0.239,11.744-0.331
	c6.919-0.169,11.354-4.498,11.569-11.368c0.038-1.028-0.153-2.086-0.25-3.128C242.541,105.528,242.311,97.138,241.879,92.951z
	 M233.711,107.644c-0.968,3.427-3.071,5.866-7.088,6.221c-3.362,0.296-4.8-0.523-3.87-3.743c1.358-4.794,3.589-9.325,5.34-14.026
	c0.803-2.107,0.7-5.565,3.72-5.166c3.576,0.492,2.554,4.059,2.682,6.633c0.051,1.02-0.067,2.018-0.103,3.338
	C234.203,102.961,234.347,105.415,233.711,107.644z M75.367,91.806c0.363-3.484-3.106-8.655-6.4-9.536
	c-3.385-0.915-6.705-1.731-10.04-1.869c-0.138-0.016-0.273-0.016-0.409-0.016c-8.045,0-18.861,10.265-19.288,18.295
	c-0.297,5.658,1.322,10.506,4.688,14.06c3.77,3.979,9.578,5.903,16.044,5.324c6.566-0.593,8.111-1.814,9.726-7.658
	c0.185-0.666,0.367-1.355,0.533-2.028c0.291-1.099,0.591-2.238,0.929-3.361c0.353-1.138,0.29-2.197-0.193-3.009
	c-0.456-0.803-1.273-1.369-2.318-1.622c-2.671-0.623-5.452-0.929-8.166-1.235c-1.091-0.116-2.181-0.239-3.268-0.382l-0.624,1.486
	c0.236,0.234,0.482,0.454,0.721,0.67c0.604,0.571,1.225,1.146,1.809,1.741c1.248,1.289,1.884,2.782,1.859,4.354
	c-0.031,1.882-1.037,3.828-2.896,5.605c-0.786,0.731-1.945,1.15-3.266,1.15c-1.828,0-3.697-0.773-5.011-2.063
	c-4.34-4.229-5.249-11.782-2.006-16.455c1.831-2.64,4.07-5.097,6.507-7.101c1.781-1.478,3.611-2.221,5.432-2.221
	c2.411,0,4.704,1.339,6.618,3.84c0.334,0.448,0.648,0.938,0.95,1.384c0.715,1.076,1.451,2.186,2.436,2.833
	c0.444,0.282,1.078,0.418,1.896,0.418c0.71,0,1.521-0.101,2.323-0.322C74.51,93.957,75.283,92.71,75.367,91.806z M148.58,116.79
	c3.288,4.618,10.511,5.884,14.844,2.451c5.347-4.169,8.36-10.191,10.399-16.383c1.453-4.408,1.3-9.368,1.738-14.1
	c0.271-2.938,0.322-3.859-3.413-4.661c-2.854-0.608-3.873,0.942-4.362,3.277c-1.173,5.696-2.521,11.367-3.365,17.115
	c-0.46,3.138-1.738,5.53-4.113,7.392c-0.786,0.605-2.291,1.425-2.719,1.12c-0.924-0.65-3.497-2.423-3.385-3.4
	c0.709-6.24,1.726-12.457,2.63-18.68c0.179-1.196,0.834-2.901,0.304-3.502c-1.349-1.529-3.212-2.611-4.982-3.685
	c-0.287-0.165-1.623,0.601-1.773,1.143c-1.815,6.598-3.509,13.256-5.241,19.892C144.271,109.443,146.087,113.279,148.58,116.79z
	 M113.597,112.105c3.614,5.264,8.424,7.783,14.803,7.608c6.287-0.166,8.708-5.554,10.604-9.54
	c4.196-8.805-1.502-23.941-9.899-26.526c-1.939-0.602-3.299-0.904-5.081,0.369c-6.779,4.896-10.896,11.252-11.601,20.662
	C111.846,106.655,111.741,109.394,113.597,112.105z M132.277,102.801c0.111,5.182-3.832,8.467-8.026,10.963
	c-0.607,0.364-2.063-0.511-3.012-1.008c-0.454-0.232-0.794-0.916-0.93-1.454c-1.363-5.297,1.144-9.971,2.572-14.749
	c0.899-2.981,1.489-6.616,5.784-7.177C132.165,93.191,132.189,98.222,132.277,102.801z M225.77,41.224
	c-1.294-4.039-2.391-8.14-3.582-12.204c-0.595-2.086-1.972-3.009-4.148-2.96c-1.987,0.05-2.821,1.251-3.1,2.968
	c-1.323,8.173-3.704,15.967-7.386,23.445c-0.84,1.705-0.396,4.161-0.144,6.216c0.09,0.751,1.281,1.593,2.145,1.916
	c0.527,0.207,1.671-0.281,2.039-0.818c1.07-1.502,1.892-3.187,2.796-4.805c1.502-2.647,2.313-5.759,5.407-8.037
	c0.703,2.196,1.122,4.001,1.844,5.648c1.062,2.414,2.045,4.974,3.634,7.024c2.183,2.881,4.832,2.454,7.181-0.306
	c7.024-8.286,9.811-18.729,14.579-28.151c1.256-2.472-0.144-5.008-2.976-6.327c-2.505-1.157-3.876-0.386-5.219,3.004
	c-0.3,0.747-0.3,1.59-0.623,2.313c-2.723,5.984-5.493,11.967-9.021,19.622C227.518,45.621,226.492,43.481,225.77,41.224z
	 M184.589,47.296c2.896-0.109,5.813-0.186,8.651-0.71c0.889-0.159,2.093-1.706,2.109-2.635c0.016-1.058-0.931-2.373-1.815-3.149
	c-0.719-0.612-1.979-0.635-3.011-0.809c-1.914-0.342-4.838,0.542-5.122-2.063c-0.195-1.703,1.287-3.928,2.607-5.369
	c1.108-1.221,2.984-2.015,4.666-2.401c3.343-0.746,6.791-1.029,10.185-1.6c1.956-0.336,5.011-0.042,4.714-2.857
	c-0.163-1.586-2.343-3.532-4.062-4.278c-2.068-0.896-4.721-1.253-6.919-0.826c-2.921,0.585-5.538,0.865-8.526,0.054
	c-1.72-0.463-4.065,0.507-5.819,1.411c-0.732,0.384-0.678,2.304-0.984,3.499c-0.467,1.748-0.662,3.634-1.483,5.203
	c-3.371,6.505-6.686,13.005-8.974,20.026c-2.377,7.273,0.017,11.263,7.479,12.116c1.569,0.175,3.173,0.143,4.765,0.224
	c3.71,0.196,6.605-1.743,9.425-3.728c1.738-1.216,1.463-3.443-0.537-4.5c-1.128-0.585-2.454-1.005-3.72-1.108
	c-3.097-0.251-6.213-0.258-9.329-0.372C179.92,47.465,179.927,47.503,184.589,47.296z M114.285,28.483
	c-5.716,5.975-7.858,13.68-10.526,21.108c-1.677,4.636-1.286,9.454-0.266,14.158c1.047,4.761,4.684,7.222,9.346,6.095
	c8.314-1.997,14.157-6.877,16.527-15.345c0.713-2.552,1.477-5.148,1.648-7.759c0.278-4.179,1.549-8.841-1.018-12.411
	c-3.323-4.622-7.038-9.361-13.735-10.09C115.599,25.703,115.289,27.426,114.285,28.483z M119.077,59.522
	c-0.438,0.683-1.2,1.386-1.951,1.609c-2.093,0.65-4.632,1.978-6.332,1.331c-2.657-1.047-1.195-3.993-0.909-6.141
	c0.964-7.416,3.23-14.438,6.899-20.96c0.997-1.771,2.453-2.382,4.156-0.809c2.858,2.669,4.817,5.74,4.201,8.298
	C124.389,50.041,122.035,54.911,119.077,59.522z M79.094,65.551c3.079,0.782,3.817-2.091,4.631-4.354
	c0.27-0.738,0.578-1.481,0.822-2.239c2.897-8.524,5.887-17.003,8.608-25.573c0.954-3.001,2.395-4.264,5.634-4.116
	c3.142,0.12,6.327-0.339,9.453-0.796c0.759-0.115,1.831-1.243,1.903-1.986c0.075-0.854-0.633-2.384-1.309-2.585
	c-2.993-0.86-6.155-2.068-9.158-1.854c-7.612,0.538-15.162,1.773-22.737,2.743c-0.525,0.063-1.195,0.025-1.527,0.331
	c-0.708,0.623-1.665,1.424-1.72,2.203c-0.046,0.877,0.578,2.305,1.29,2.609c1.92,0.831,4.041,1.188,6.076,1.761
	c3.345,0.929,3.92,1.76,2.938,5.032c-0.595,2.027-1.72,3.889-2.383,5.895c-1.799,5.533-3.498,11.101-4.928,15.694
	C77.135,61.67,76.045,64.767,79.094,65.551z M55.298,22.418c-2.088,2.004-4.084,4.297-6.554,5.686
	c-4.211,2.389-4.935,5.822-4.417,10.102c0.508,4.101,2.848,6.276,6.49,8.178c7.333,3.84,7.353,4.563,1.677,10.507
	c-2.434,2.55-3.687,5.139-2.865,8.57c0.226,0.935,0.723,2.362,1.354,2.529c1.093,0.266,2.835,0.167,3.511-0.546
	c3.283-3.423,6.343-7.05,9.386-10.682c3.48-4.146,3.331-7.109-0.932-10.778c-2.98-2.563-6.319-4.72-9.584-6.93
	c-1.708-1.165-1.914-2.531-0.803-3.996c1.107-1.451,2.546-2.669,3.787-4.04c2.468-2.698,4.901-5.423,7.409-8.216
	C58.318,19.439,58.359,19.489,55.298,22.418z M149.241,56.48c-2.611-0.11-3.401-1.173-2.406-3.538
	c2.54-6.07,5.343-12.037,7.753-18.165c1.055-2.673,1.636-5.591,2.004-8.46c0.262-2.095-1.384-3.597-3.257-3.899
	c-0.892-0.146-2.311,1.097-2.969,2.068c-1.039,1.502-1.924,3.246-2.355,5.006c-1.048,4.17-3.316,7.724-5.079,11.54
	c-2.313,4.981-3.562,10.512-4.7,15.923c-0.765,3.633,1.257,6.854,4.317,7.596c5.938,1.419,11.585,0.512,16.634-3.122
	c1.353-0.97,1.017-3.363-0.606-3.851c-2.247-0.671-4.608-1.017-6.328-1.378C150.829,56.343,150.033,56.512,149.241,56.48z
	 M213.229,154.949c-0.131-0.09-0.259-0.195-0.39-0.301c-0.342-0.281-0.735-0.601-1.218-0.696c-0.854-0.176-1.755-0.15-2.441,0.083
	c-3.998,1.346-8.252,1.671-13.064,0.994c-2.675-0.374-4.976-0.821-7.04-1.368c-3.25-0.872-6.728-1.847-10.092-3.106
	c-1.084-0.399-2.068-1.055-3.113-1.741c-0.588-0.391-1.201-0.793-1.831-1.147c-3.094-1.738-6.19-2.701-9.197-2.861
	c-0.63-0.031-1.256-0.048-1.879-0.048c-5.698,0-11.515,1.372-17.297,4.082c-4.971,2.339-9.804,3.822-14.775,4.538
	c-1.498,0.224-3.162,0.099-4.491-0.339c-1.438-0.473-2.86-1.132-4.232-1.768c-0.953-0.44-1.938-0.901-2.938-1.301
	c-1.404-0.556-2.818-1.179-4.187-1.779c-3.662-1.617-7.45-3.283-11.609-3.986c-3.114-0.53-6.338-1.077-9.548-1.077
	c-2.15,0-4.099,0.24-5.962,0.735c-1.401,0.367-2.858,0.665-4.266,0.942c-1.436,0.291-2.92,0.592-4.361,0.973
	c-1.73,0.46-3.296,1.144-4.52,1.979c-0.544,0.364-0.755,0.422-0.835,0.428c-0.003-0.006-0.131-0.086-0.302-0.671
	c-0.359-1.272-1.064-1.537-1.588-1.537c-0.226,0-0.472,0.048-0.724,0.153c-1.282,0.515-0.876,1.633-0.698,2.109
	c0.031,0.093,0.063,0.176,0.088,0.259c0.325,1.058,0.658,2.112,0.993,3.163c0.565,1.793,1.154,3.641,1.682,5.472
	c0.731,2.547,1.471,5.094,2.211,7.641c2.25,7.753,4.576,15.765,6.695,23.688c1.812,6.787,4.38,13.402,6.861,19.797
	c0.629,1.621,1.256,3.237,1.872,4.861c1.806,4.745,3.559,9.833,5.681,16.493c0.477,1.502,0.839,3.081,1.19,4.602
	c0.438,1.893,0.892,3.842,1.566,5.701c1.911,5.254,3.999,10.54,6.019,15.649c0.873,2.209,1.745,4.417,2.609,6.635
	c0.085,0.214,0.162,0.444,0.236,0.668c0.01,0.038,0.024,0.077,0.035,0.115c-0.086-0.1-0.179-0.198-0.264-0.301
	c-0.488-0.553-0.904-1.191-1.46-1.648c-0.397-0.339-0.978-0.444-1.479-0.659c-0.096,0.56-0.287,1.116-0.27,1.672
	c0.025,0.844,0.188,1.681,0.294,2.527c-0.179,0.119-0.359,0.233-0.538,0.355c-0.7-0.557-1.445-1.064-2.081-1.685
	c-0.673-0.655-1.312-0.53-1.647,0.153c-0.465,0.952-0.741,2.007-0.982,3.039c-0.061,0.278,0.249,0.838,0.503,0.921
	c0.273,0.096,0.921-0.138,0.994-0.358c0.628-2,1.769-1.073,2.797-0.508c0.938,0.518,2.042,0.942,2.793,0.144
	c0.847-0.901,1.538-0.713,2.46-0.405c1.494,0.511,1.771,0.329,2.346-1.208c0.213-0.572,0.483-1.125,0.808-1.873
	c0.726,0.809,1.187,1.374,1.701,1.892c1.489,1.489,2.102,1.509,3.563-0.035c0.813-0.856,1.587-1.02,2.672-0.476
	c0.679,0.339,1.524,0.396,2.304,0.463c0.112,0.01,0.499-0.779,0.39-0.92c-1.43-1.924-3.638-2.353-5.779-1.198
	c-0.236,0.124-0.473,0.259-0.681,0.425c-0.671,0.546-1.171,0.38-1.688-0.271c-0.536-0.678-1.113-1.346-1.778-1.898
	c-0.791-0.662-1.567-0.681-2.115,0.409c-0.018,0.035-0.037,0.066-0.055,0.099c-0.182-0.585-0.367-1.17-0.551-1.748
	c-0.791-2.56-1.617-5.202-2.511-7.772c-0.993-2.854-2.027-5.688-3.064-8.522c-1.2-3.275-2.436-6.67-3.582-10.019
	c-1.371-3.998-2.696-8.086-3.979-12.042c-0.905-2.803-1.814-5.605-2.743-8.401c-0.269-0.799-0.174-1.275,0.352-1.813
	c2.69-2.731,5.476-4.288,8.512-4.771c3.047-0.479,6.186-0.726,9.322-0.726l0.781,0.006c1.818,0.02,3.632,0.048,5.447,0.048
	c0.003,0,0.003,0,0.003,0c5.794,0,12.615-0.22,19.293-1.812c1.93-0.467,3.913-1.24,5.896-2.301c1.771-0.939,3.48-2.042,5.13-3.116
	c0.687-0.44,1.364-0.885,2.055-1.323l0.249-0.149c0.339-0.208,0.693-0.416,1-0.716c0.703-0.7,1.409-1.391,2.122-2.084
	c2.132-2.093,4.334-4.247,6.414-6.455c3.222-3.423,6.846-6.909,11.563-9.246c1.147-0.563,2.236-1.252,3.295-1.917
	c0.952-0.598,1.942-1.224,2.949-1.738c1.496-0.771,2.969-1.63,4.391-2.461c2.599-1.518,5.283-3.087,8.169-4.122
	c2.79-1.001,5.566-2.071,8.251-3.181c4.628-1.907,8.798-4.735,12.394-8.414c0.227-0.227,0.447-0.473,0.661-0.716l0.332-0.364
	c0.103-0.115,0.154-0.269,0.135-0.428C213.443,155.179,213.36,155.035,213.229,154.949z"/>
</svg>
